<?xml version="1.0" standalone="no"?>
<!DOCTYPE svg PUBLIC "-//W3C//DTD SVG 20010904//EN"
 "http://www.w3.org/TR/2001/REC-SVG-20010904/DTD/svg10.dtd">
<svg version="1.0" xmlns="http://www.w3.org/2000/svg"
 width="429.000000pt" height="600.000000pt" viewBox="0 0 429.000000 600.000000"
 preserveAspectRatio="xMidYMid meet">

<g transform="translate(0.000000,600.000000) scale(0.100000,-0.100000)"
fill="#000000" stroke="none">
<path d="M0 3000 l0 -3000 2145 0 2145 0 0 3000 0 3000 -2145 0 -2145 0 0
-3000z m2208 2771 c20 -11 50 -24 65 -30 59 -23 -14 -51 -134 -51 -127 0 -182
34 -97 60 24 7 52 18 63 26 27 19 59 18 103 -5z m1485 -49 c-7 -4 -16 -19 -22
-32 -10 -24 -10 -24 -10 7 -1 22 4 33 17 35 22 5 30 -1 15 -10z m37 8 c0 -5
-5 -10 -11 -10 -5 0 -7 5 -4 10 3 6 8 10 11 10 2 0 4 -4 4 -10z m250 -67 l-1
-68 -20 27 c-26 35 -74 51 -118 38 -19 -5 -37 -7 -41 -5 -12 7 -36 -36 -42
-71 -3 -26 -1 -31 11 -27 11 3 10 0 -3 -11 -23 -19 -36 -20 -36 -4 0 6 -8 4
-19 -6 -13 -12 -21 -14 -26 -6 -3 5 -11 8 -16 5 -5 -4 -9 9 -8 27 0 22 3 27 7
16 6 -13 14 -7 41 30 19 26 46 59 60 74 18 21 21 28 10 32 -8 2 -21 7 -29 9
-8 3 40 6 108 6 l122 1 0 -67z m-3460 -18 c7 -4 22 3 35 15 l23 22 4 -23 c5
-36 26 -34 65 8 21 22 33 29 28 18 -4 -11 -10 -33 -13 -49 -4 -27 -3 -28 22
-24 32 6 32 4 4 -24 l-23 -23 60 -6 c33 -3 52 -6 43 -7 -9 -1 -30 -13 -45 -26
l-28 -25 23 -8 24 -9 -29 -13 -28 -13 26 -21 c14 -12 34 -27 44 -33 15 -8 12
-10 -18 -6 -20 2 -44 1 -53 -2 -15 -6 -15 -8 1 -32 l16 -25 -25 16 c-36 24
-49 11 -43 -42 l5 -44 -32 37 c-37 42 -56 39 -56 -9 l-1 -32 -20 28 c-11 15
-25 27 -30 27 -6 0 -18 -19 -28 -42 l-18 -43 -7 32 c-4 17 -13 37 -21 43 -14
12 -23 5 -57 -43 -12 -16 -13 -14 -13 15 0 42 -27 49 -62 16 -25 -22 -25 -22
-14 -1 11 23 15 63 5 63 -3 0 -14 -5 -25 -11 -18 -9 -19 -7 -13 15 6 25 5 26
-42 26 l-49 0 33 20 c40 25 37 43 -9 50 l-34 6 38 13 c41 14 46 27 20 47 -16
12 -16 13 8 14 33 0 51 20 39 40 -16 24 -11 31 11 20 30 -17 52 5 47 47 l-4
33 27 -26 c33 -32 59 -26 59 12 l0 27 25 -23 c30 -28 57 -19 64 21 4 23 4 23
17 -8 7 -17 18 -35 24 -38z m3293 -24 c-3 -12 3 -24 17 -34 18 -12 19 -15 5
-21 -28 -10 -57 12 -49 37 5 18 21 36 31 37 0 0 -1 -8 -4 -19z m47 -7 c8 -20
13 -24 23 -16 10 8 13 6 14 -8 1 -11 -3 -23 -9 -26 -6 -4 -8 -3 -5 3 4 6 -5
15 -18 21 -15 7 -25 20 -25 32 0 28 9 25 20 -6z m-220 -84 l0 -90 -1459 0
c-892 0 -1462 4 -1466 9 -3 5 7 11 22 13 33 4 43 27 14 35 -32 8 -25 20 24 39
26 9 45 23 45 32 0 12 -11 14 -62 8 l-62 -6 24 25 23 25 1449 0 1448 0 0 -90z
m440 0 l0 -90 -45 0 -45 0 0 90 0 90 45 0 45 0 0 -90z m-154 33 c-10 -10 -19
5 -10 18 6 11 8 11 12 0 2 -7 1 -15 -2 -18z m-56 -33 c10 0 22 -5 26 -12 5 -7
2 -9 -7 -6 -54 20 -61 20 -50 0 6 -11 7 -22 4 -26 -3 -3 2 -6 11 -6 12 0 16
-5 12 -16 -5 -13 -1 -14 22 -9 23 5 28 2 29 -15 1 -11 -4 -20 -11 -20 -7 0
-18 -11 -25 -24 -15 -27 -50 -46 -86 -46 -50 0 -55 8 -55 80 0 83 6 100 34 99
16 -1 17 -2 4 -6 -18 -5 -25 -23 -9 -23 4 0 4 -20 -2 -45 -12 -52 -8 -60 28
-51 29 8 33 34 6 44 -18 6 -18 10 -6 46 8 22 12 43 9 47 -2 4 4 9 13 11 10 2
22 -2 26 -9 4 -7 17 -13 27 -13z m107 -110 l2 -80 -37 1 c-34 0 -35 1 -14 11
20 10 27 31 22 67 -3 22 10 81 18 81 4 0 8 -36 9 -80z m-282 0 c8 -7 15 -23
15 -36 0 -13 8 -28 18 -33 13 -8 8 -10 -25 -11 l-43 0 1 78 c1 63 2 71 10 46
5 -17 16 -37 24 -44z m-30 -189 c3 -5 -5 -11 -17 -13 -28 -4 -36 -28 -9 -28
12 0 21 -4 21 -10 0 -5 -9 -10 -20 -10 -11 0 -20 -7 -20 -15 0 -9 9 -15 25
-15 14 0 25 -4 25 -10 0 -5 -16 -10 -35 -10 l-35 0 0 54 c0 49 2 55 23 59 12
2 25 5 29 6 4 0 9 -3 13 -8z m-158 -16 c2 -6 -9 -11 -24 -10 -25 0 -28 -3 -28
-35 0 -32 3 -35 28 -35 34 1 30 -19 -5 -23 -27 -3 -58 28 -58 58 0 30 31 61
58 58 14 -2 27 -8 29 -13z m-376 -5 c34 -19 18 -70 -23 -70 -11 0 -18 -7 -18
-20 0 -11 -4 -20 -10 -20 -11 0 -14 103 -3 113 9 10 31 9 54 -3z m184 -32 c9
-24 19 -49 22 -55 3 -7 -2 -13 -11 -13 -9 0 -16 5 -16 10 0 16 -47 11 -54 -6
-3 -8 -10 -13 -15 -9 -9 5 -4 26 24 103 9 25 33 11 50 -30z m-2618 -240 l3
-268 -245 0 -245 0 0 270 0 270 243 -2 242 -3 2 -267z m2273 262 c0 -5 -9 -10
-20 -10 -27 0 -25 -14 5 -34 14 -9 25 -23 25 -31 0 -19 -43 -40 -64 -32 -26
10 -18 28 9 21 18 -4 25 -2 25 8 0 8 -11 20 -25 26 -27 13 -32 31 -13 50 15
15 58 16 58 2z m-361 -42 l18 -43 13 43 c9 29 19 42 32 42 15 0 18 -8 18 -50
0 -27 0 -52 0 -55 0 -3 -3 -6 -7 -7 -5 -2 -10 17 -13 42 l-5 45 -14 -47 c-7
-27 -18 -48 -23 -48 -5 0 -17 19 -28 43 l-19 42 0 -42 c-1 -24 -5 -43 -11 -43
-6 0 -10 27 -10 60 0 74 21 82 49 18z m-355 12 c7 -7 7 -16 -1 -28 -8 -13 -7
-24 3 -44 12 -24 12 -28 1 -28 -8 0 -19 12 -25 26 -14 28 -36 23 -27 -7 4 -13
2 -19 -9 -19 -13 0 -16 12 -16 54 0 34 5 56 13 59 17 6 49 -1 61 -13z m194 8
c22 -22 15 -76 -13 -94 -51 -33 -103 23 -76 82 8 18 18 24 44 24 18 0 38 -5
45 -12z m-363 -8 c-3 -5 -15 -10 -26 -10 -10 0 -19 -7 -19 -15 0 -8 9 -15 20
-15 11 0 20 -4 20 -10 0 -5 -7 -10 -15 -10 -9 0 -15 -9 -15 -25 0 -16 -6 -25
-15 -25 -12 0 -15 13 -15 60 l0 60 36 0 c21 0 33 -4 29 -10z m-461 -6 c23 -9
20 -27 -3 -19 -23 7 -44 -17 -39 -47 2 -17 11 -24 31 -26 39 -5 33 -22 -8 -22
-29 0 -37 5 -45 26 -18 45 -3 75 47 93 1 1 8 -2 17 -5z m126 -21 l0 -28 24 30
c13 17 28 27 32 23 4 -5 -1 -17 -11 -28 -18 -20 -18 -21 3 -50 27 -36 11 -50
-16 -15 -24 31 -29 31 -28 4 1 -12 -5 -24 -11 -26 -10 -3 -13 12 -13 56 0 34
4 61 10 61 6 0 10 -12 10 -27z m-300 -38 c23 -56 20 -86 -4 -52 -17 22 -42 22
-55 0 -5 -10 -13 -14 -17 -10 -11 11 25 117 40 117 8 0 24 -25 36 -55z m-330
35 c0 -5 -7 -10 -15 -10 -11 0 -15 -12 -15 -51 0 -66 -24 -62 -28 4 -2 36 -7
47 -20 48 -14 0 -13 2 3 9 28 12 75 12 75 0z m160 0 c0 -5 -7 -10 -15 -10 -11
0 -15 -12 -15 -51 0 -31 -4 -48 -10 -44 -5 3 -10 26 -10 51 0 37 -3 44 -20 44
-11 0 -20 5 -20 10 0 6 20 10 45 10 25 0 45 -4 45 -10z m-350 -46 c11 -25 20
-52 20 -60 0 -19 -16 -18 -24 1 -7 20 -43 19 -55 -2 -19 -35 -22 -4 -5 51 10
32 24 56 31 56 8 0 23 -21 33 -46z m2659 -80 c28 -9 58 -25 67 -35 16 -18 14
-22 -25 -73 -23 -30 -53 -66 -65 -79 l-24 -26 -62 20 c-34 10 -72 19 -85 19
-33 0 -73 -19 -80 -39 -7 -17 -3 -21 85 -70 34 -19 69 -49 80 -67 54 -87 -15
-249 -137 -321 -126 -74 -347 -87 -423 -25 l-22 18 32 80 c47 113 43 111 136
79 56 -19 91 -26 122 -22 43 5 82 30 82 52 0 6 -32 29 -71 50 -91 50 -114 82
-113 155 1 124 121 256 261 289 64 15 187 12 242 -5z m-429 -19 c20 -25 5 -55
-90 -175 l-91 -115 -62 -6 c-64 -6 -97 2 -97 25 0 7 35 71 78 141 86 142 86
142 188 144 43 1 65 -3 74 -14z m-445 -24 c124 -56 138 -201 39 -401 -102
-205 -286 -330 -489 -330 -237 0 -304 164 -174 427 74 149 195 258 338 304 78
25 232 25 286 0z m-561 -47 c-2 -40 -55 -148 -74 -151 -8 -1 -63 -5 -123 -8
l-108 -7 -14 -35 c-8 -20 -15 -39 -15 -43 0 -5 45 -6 100 -3 121 7 125 3 86
-95 -39 -100 -30 -94 -159 -100 l-115 -5 -20 -52 c-11 -29 -34 -86 -52 -127
l-31 -76 -91 -7 c-144 -12 -146 -37 21 372 78 191 145 350 147 353 8 7 202 17
334 16 l115 -1 -1 -31z m-565 2 c10 -12 -7 -63 -84 -253 -100 -246 -131 -306
-187 -360 -90 -87 -239 -140 -363 -130 -124 9 -185 65 -185 166 0 47 15 92 96
296 53 132 102 246 109 253 7 8 48 15 103 19 82 5 92 4 98 -12 5 -11 -25 -98
-84 -244 -88 -218 -96 -241 -93 -268 2 -21 101 -16 138 7 44 26 56 48 130 228
36 86 78 189 95 229 l29 72 47 4 c108 8 140 7 151 -7z m2326 -37 c-3 -9 1 -19
10 -23 24 -9 18 -26 -10 -26 -16 0 -25 -6 -25 -15 0 -8 -4 -15 -10 -15 -5 0
-10 7 -10 15 0 8 -9 15 -20 15 -24 0 -27 15 -4 24 10 4 13 13 10 24 -5 16 -1
18 29 18 27 -1 34 -4 30 -17z m-3292 -313 c6 -15 -19 -30 -33 -21 -13 8 -1 35
15 35 7 0 15 -6 18 -14z m-293 -166 c11 0 11 -3 2 -12 -8 -8 -8 -17 0 -31 9
-18 8 -19 -15 -13 -14 3 -29 2 -32 -4 -10 -17 -25 -11 -25 10 0 11 -4 20 -10
20 -5 0 -10 5 -10 10 0 6 6 10 14 10 8 0 18 9 21 21 6 19 8 19 24 5 10 -9 24
-16 31 -16z m3353 -207 c3 -5 -32 -89 -77 -188 l-82 -180 -63 -3 c-61 -3 -62
-2 -55 20 4 12 33 95 64 183 49 135 62 161 82 166 33 10 126 10 131 2z m-210
-10 c3 -5 -5 -33 -17 -63 -20 -51 -25 -55 -57 -57 -152 -11 -157 -13 -168 -45
l-11 -30 78 3 c89 4 94 -1 63 -73 -17 -40 -24 -46 -58 -51 -21 -4 -60 -7 -88
-7 -49 0 -50 -1 -67 -40 l-17 -40 90 0 c51 0 89 -4 89 -10 0 -5 -11 -34 -24
-63 l-23 -54 -159 -7 c-86 -3 -161 -3 -165 1 -4 5 41 125 99 268 l107 260 105
6 c178 9 219 9 223 2z m-590 -34 c21 -5 52 -23 70 -39 30 -27 32 -32 32 -97 0
-152 -120 -307 -283 -365 -61 -21 -302 -39 -302 -22 0 5 47 124 104 264 l105
255 43 6 c74 10 191 9 231 -2z m-486 -106 c-4 -54 -10 -165 -13 -248 -4 -82
-11 -158 -16 -167 -7 -15 -22 -18 -79 -18 l-71 0 4 56 3 57 -75 -6 c-70 -5
-77 -8 -100 -37 -67 -85 -63 -83 -129 -88 -36 -3 -67 0 -73 6 -7 7 48 88 172
253 101 134 192 254 203 267 18 19 30 22 100 22 l80 0 -6 -97z m-323 66 c-1
-15 -316 -448 -368 -506 -17 -20 -30 -23 -87 -23 -37 0 -70 3 -72 8 -7 12 28
496 36 510 5 7 32 12 74 12 l66 0 -7 -102 c-3 -57 -9 -130 -12 -163 l-7 -60
122 167 121 167 48 4 c73 6 87 4 86 -14z m-531 -24 c-1 -5 -47 -123 -104 -262
l-102 -252 -41 -6 c-23 -4 -61 -5 -85 -3 l-45 3 -26 143 c-15 78 -29 144 -32
147 -3 3 -18 -28 -33 -67 -16 -40 -44 -110 -63 -155 l-34 -83 -64 0 c-35 0
-64 4 -64 9 0 4 47 123 104 262 l103 254 78 8 c42 5 81 5 85 0 4 -4 20 -75 35
-156 15 -81 29 -146 30 -145 2 2 26 61 55 132 79 199 70 187 143 184 34 -2 61
-7 60 -13z m-587 -18 c2 -7 -42 -127 -99 -267 l-104 -255 -64 -6 c-35 -3 -68
-2 -73 2 -5 5 36 119 96 266 l106 258 58 6 c33 3 63 6 67 7 4 1 10 -4 13 -11z
m2918 -142 c-9 -22 -34 -27 -34 -6 0 23 8 31 25 24 8 -2 11 -11 9 -18z m-380
-131 c21 -21 20 -42 -4 -82 -26 -43 -81 -69 -118 -56 -54 19 -32 118 32 144
34 14 73 11 90 -6z m-3114 -134 c0 -9 -3 -20 -7 -23 -10 -10 -33 13 -27 27 7
19 34 15 34 -4z m2588 -118 c10 -7 9 -16 -3 -46 l-16 -38 54 31 c30 17 64 31
76 31 l21 0 -20 -52 c-11 -29 -20 -55 -20 -58 0 -2 20 18 45 46 41 48 47 51
77 45 44 -9 51 -45 14 -63 -19 -8 -26 -19 -26 -40 0 -15 -2 -28 -4 -28 -20 0
-36 16 -36 36 0 28 -8 31 -25 8 -16 -23 -71 -10 -78 17 -4 16 -13 20 -39 18
-53 -3 -68 0 -68 15 0 17 -37 27 -68 19 -42 -11 -21 12 36 39 67 31 63 30 80
20z m-332 -47 c8 -7 8 -13 0 -21 -15 -16 -35 -6 -33 16 1 20 14 22 33 5z m706
-26 c29 -15 5 -29 -38 -22 -27 4 -37 0 -59 -23 -29 -31 -28 -48 3 -52 22 -3
31 13 12 20 -23 8 8 29 33 22 33 -8 33 -11 2 -48 -22 -28 -27 -29 -62 -20 -28
6 -39 15 -41 31 -4 30 22 68 61 87 38 19 61 20 89 5z m68 -16 c0 -3 -8 -15
-17 -25 -15 -17 -15 -20 -3 -28 25 -16 37 -11 57 20 12 18 23 26 31 21 9 -5
-1 -27 -34 -77 -56 -84 -50 -77 -64 -69 -8 5 -6 14 6 32 13 21 14 27 3 34 -23
14 -36 10 -53 -16 -15 -22 -46 -35 -46 -19 0 16 93 134 106 134 7 0 14 -3 14
-7z m93 -79 c-20 -30 -40 -53 -45 -52 -15 5 -11 15 21 68 21 34 35 48 45 44
12 -5 8 -17 -21 -60z m-2898 -4 c10 -11 28 -20 40 -20 11 0 25 -4 31 -9 5 -5
20 -11 33 -13 36 -5 37 -25 2 -42 -91 -48 -369 -38 -359 12 4 20 36 29 118 33
l65 2 -50 7 c-27 4 -44 8 -37 8 6 1 21 11 32 22 14 14 33 20 63 20 31 0 49 -6
62 -20z m900 -1 c0 -7 -8 -15 -17 -17 -18 -3 -25 18 -11 32 10 10 28 1 28 -15z
m832 6 c43 -13 94 -49 82 -58 -2 -2 -51 -13 -109 -26 -147 -32 -312 -84 -468
-145 -133 -53 -133 -53 -127 -28 24 94 178 208 342 252 84 23 212 25 280 5z
m1507 -20 c15 -8 47 -15 70 -16 25 0 -9 -9 -89 -23 -71 -13 -165 -33 -209 -45
-91 -25 -115 -21 -32 5 33 10 51 21 44 25 -13 8 43 46 82 55 14 3 30 7 35 9
25 8 73 4 99 -10z m-1044 -17 c-274 -61 -634 -162 -900 -253 -177 -61 -413
-151 -473 -182 -78 -39 -65 -20 20 30 111 65 308 157 448 210 304 113 704 204
900 204 l50 1 -45 -10z m231 -25 c84 -50 33 -143 -140 -258 -290 -193 -828
-380 -1254 -436 -131 -17 -312 -9 -362 16 -52 26 -65 61 -42 110 20 42 48 60
187 121 376 165 1044 374 1420 444 123 23 156 24 191 3z m1037 -10 c2 -16 -7
-28 -43 -48 -162 -95 -588 -145 -573 -68 5 25 42 41 176 74 160 40 327 68 387
66 43 -2 50 -5 53 -24z m-618 -8 c0 -8 -9 -15 -20 -15 -20 0 -26 11 -13 23 12
13 33 7 33 -8z m-2245 -105 c-3 -5 -15 -10 -26 -10 -10 0 -19 -5 -19 -11 0 -6
9 -8 20 -4 11 3 20 2 20 -3 0 -6 -11 -13 -25 -16 -14 -4 -25 -11 -25 -17 0 -6
9 -9 20 -6 11 3 20 1 20 -3 0 -9 -69 -35 -75 -28 -9 9 20 98 34 101 31 9 62 7
56 -3z m341 -20 c14 0 15 -3 6 -12 -7 -7 -12 -22 -12 -33 0 -17 -6 -22 -30
-22 -16 0 -30 5 -30 10 0 6 -7 19 -17 29 -15 17 -15 18 5 18 12 0 23 9 28 22
6 20 8 20 19 5 7 -9 20 -17 31 -17z m-436 -4 c0 -8 -7 -21 -15 -30 -9 -9 -11
-17 -5 -21 16 -10 12 -35 -5 -35 -9 0 -18 7 -21 15 -9 22 -21 18 -28 -10 -4
-14 -12 -25 -20 -25 -10 0 -11 9 -5 43 11 59 11 63 -4 42 -8 -10 -19 -15 -24
-12 -14 8 -38 -28 -47 -70 -9 -40 -41 -56 -33 -17 7 38 -11 87 -30 80 -8 -3
-21 -6 -28 -6 -7 0 -16 -7 -19 -16 -5 -13 -1 -15 19 -10 33 8 33 -11 0 -26
-30 -14 -35 -43 -5 -35 36 9 22 -21 -16 -33 -19 -7 -37 -10 -39 -8 -4 4 13
139 18 144 6 6 107 20 107 15 0 -3 4 -13 10 -21 7 -12 12 -10 30 12 20 27 42
33 123 36 26 2 37 -2 37 -12z m-335 -88 c-8 -80 -13 -95 -30 -101 -11 -5 -12
2 -8 30 5 32 4 35 -11 30 -10 -4 -21 -7 -26 -7 -4 0 -10 -18 -14 -40 -4 -23
-12 -40 -19 -40 -11 0 -12 15 -5 71 5 40 7 73 6 75 -2 1 -11 -4 -22 -11 -12
-9 -20 -30 -23 -62 -7 -74 -12 -93 -27 -93 -8 0 -12 9 -10 23 13 93 11 116 -8
119 -16 3 -17 5 -6 20 8 10 35 19 71 23 l57 7 0 -31 c0 -27 2 -30 23 -22 12 5
24 18 26 32 2 20 16 38 29 39 2 0 1 -28 -3 -62z m521 7 c-12 -46 -26 -75 -36
-75 -7 0 -8 5 -3 13 4 6 9 23 11 37 4 37 10 50 23 50 7 0 9 -9 5 -25z m-41 -4
c-3 -6 -14 -11 -24 -11 -32 0 -73 -67 -46 -76 16 -6 43 16 28 23 -20 7 -15 19
12 31 22 10 25 9 25 -6 0 -27 -26 -58 -60 -72 -44 -18 -57 -3 -39 47 11 29 25
44 58 60 45 23 59 24 46 4z m-120 -73 c-10 -64 -14 -76 -32 -82 -16 -7 -42 19
-43 42 0 25 -20 11 -20 -15 0 -39 -11 -73 -22 -73 -9 0 -4 80 8 123 8 26 43
21 56 -8 14 -32 28 -32 28 -1 0 32 10 56 22 56 6 0 7 -17 3 -42z m-137 -75
c-6 -44 -16 -74 -24 -77 -17 -6 -17 -8 -3 74 8 53 25 88 36 77 1 -2 -3 -35 -9
-74z m-44 0 c-8 -64 -19 -103 -32 -103 -4 0 -6 19 -5 43 l3 42 -18 -45 c-30
-80 -52 -95 -52 -34 0 21 -4 33 -10 29 -5 -3 -10 -23 -10 -45 0 -24 -5 -40
-15 -44 -8 -3 -15 -2 -15 2 3 55 23 158 32 164 22 14 27 9 34 -38 8 -53 15
-49 38 23 10 30 24 54 34 56 9 3 18 5 20 6 1 0 -1 -25 -4 -56z m2727 32 c44
-15 119 -68 119 -84 0 -5 -37 3 -82 16 -46 13 -130 32 -188 42 l-105 19 35 16
c42 20 151 16 221 -9z m-197 -30 c127 -19 303 -65 403 -105 84 -34 126 -61 55
-36 -117 42 -420 112 -607 140 l-90 14 70 1 c39 0 115 -6 169 -14z m-78 -30
c265 -45 595 -135 648 -176 80 -63 -41 -106 -253 -88 -357 31 -752 194 -669
277 19 19 113 14 274 -13z m-2616 0 c31 -38 -19 -160 -73 -180 -34 -11 -47 3
-47 52 0 90 80 176 120 128z m2182 -20 c12 5 14 -2 13 -32 -2 -29 -7 -37 -20
-35 -9 2 -23 -2 -31 -9 -11 -9 -14 -7 -14 10 0 12 -6 21 -15 21 -22 0 -18 18
5 25 12 4 20 15 20 28 1 21 2 21 14 4 7 -9 20 -15 28 -12z m-2299 -25 c-3 -11
-14 -20 -24 -20 -27 0 -49 -39 -49 -87 0 -44 14 -55 38 -31 6 6 15 9 18 5 19
-19 -41 -72 -70 -61 -21 8 -22 100 -2 148 23 54 102 95 89 46z m2417 -1170
c404 -587 736 -1080 738 -1094 3 -25 1 -26 -42 -26 -44 0 -46 -1 -46 -30 0
-29 -1 -30 -50 -30 l-50 0 0 100 0 100 -80 0 -80 0 0 -105 0 -105 -45 0 -45 0
0 -55 0 -55 -44 0 -45 0 -3 43 c-3 41 -4 42 -40 45 l-38 3 0 300 0 299 -60 0
-60 0 0 -285 0 -285 -35 0 c-35 0 -35 0 -35 -45 l0 -45 -45 0 -45 0 0 115 0
115 -74 0 c-61 0 -75 -3 -78 -16 -6 -29 -126 145 -188 272 -33 66 -65 126 -72
132 -31 25 -65 24 -132 -7 -46 -21 -68 -26 -71 -18 -2 7 -51 377 -110 822 -59
446 -109 818 -111 827 -4 13 18 24 118 56 68 22 125 40 128 40 3 1 336 -480
740 -1068z m-2016 995 c2 -7 -1 -16 -9 -18 -17 -7 -25 1 -25 24 0 21 25 16 34
-6z m2540 -36 l39 -11 -6 -121 c-58 -1173 -72 -1416 -83 -1405 -7 7 -132 188
-279 402 l-268 388 15 32 c9 17 101 184 205 371 104 187 195 350 201 362 12
21 13 21 74 7 35 -8 81 -19 102 -25z m-2651 -60 c21 -5 52 -23 70 -39 l32 -29
-85 -1 c-78 0 -159 -7 -299 -26 -52 -7 -53 -7 -42 15 14 26 76 66 122 80 46
13 156 13 202 0z m267 -98 c39 -7 33 -9 -45 -10 -194 -3 -511 -27 -668 -52
-38 -6 -71 -9 -73 -6 -8 8 169 47 276 62 105 14 440 18 510 6z m169 -55 c12
-11 21 -27 21 -37 0 -46 -137 -105 -328 -141 -101 -19 -151 -23 -362 -23 -248
0 -285 4 -373 42 -46 20 -59 56 -31 83 50 49 506 100 865 97 168 -2 189 -4
208 -21z m1654 -130 c3 -8 0 -17 -7 -19 -18 -7 -40 8 -32 22 10 16 33 14 39
-3z m-2109 -103 c2 -10 37 -164 76 -343 39 -179 73 -330 75 -337 2 -7 1 -15
-4 -17 -4 -3 -30 37 -56 89 -27 52 -57 97 -67 100 -37 12 -187 -46 -290 -111
-40 -26 -101 -64 -135 -85 l-62 -38 33 77 c160 372 281 649 288 659 5 7 33 14
61 16 29 2 57 4 64 5 6 1 14 -6 17 -15z m3096 -3 c0 -9 -3 -20 -7 -23 -10 -10
-33 13 -27 27 7 19 34 15 34 -4z m-2177 -24 c6 -16 -10 -26 -30 -19 -15 6 -5
33 12 33 7 0 15 -6 18 -14z m-573 -280 c0 -18 -16 -29 -30 -21 -13 8 -1 35 16
35 8 0 14 -6 14 -14z m-1004 -133 c-3 -20 -22 -28 -31 -14 -8 14 3 31 20 31 7
0 12 -8 11 -17z m3566 -123 c16 0 18 -3 10 -13 -6 -7 -8 -23 -5 -36 5 -20 3
-22 -16 -16 -13 4 -28 2 -36 -5 -12 -10 -15 -9 -15 5 0 10 -8 23 -17 30 -15
11 -15 13 4 19 11 4 24 17 27 29 6 20 7 21 17 5 5 -10 19 -18 31 -18z m-2835
-88 c29 -59 55 -123 58 -143 3 -20 19 -64 35 -96 17 -33 39 -93 49 -134 30
-118 65 -187 97 -195 24 -6 33 0 78 48 28 31 90 81 139 112 48 30 87 61 87 68
0 7 -15 39 -34 72 -24 42 -35 54 -39 42 -4 -9 -13 -16 -22 -16 -8 0 -28 -26
-44 -57 l-30 -58 -1 108 c0 59 -3 107 -6 107 -4 0 -13 -8 -20 -17 -20 -28 -26
-10 -8 26 16 31 13 61 -5 61 -14 0 -20 -36 -28 -150 -6 -88 -8 -98 -14 -65 -5
22 -8 71 -8 109 -1 62 -4 73 -37 117 -20 27 -38 49 -42 49 -3 0 -17 -11 -31
-24 -32 -29 -81 -61 -81 -52 0 4 34 40 75 80 78 76 132 110 159 100 8 -3 68
-100 132 -215 97 -174 119 -207 133 -200 28 15 149 43 173 39 18 -2 32 -22 63
-85 22 -45 43 -84 46 -87 3 -3 31 3 61 13 l56 19 20 -46 c11 -26 27 -71 37
-101 10 -30 30 -81 45 -114 27 -59 28 -60 41 -38 17 27 148 116 237 160 100
51 106 47 177 -95 61 -123 97 -177 213 -317 57 -69 69 -90 98 -184 19 -59 32
-108 30 -110 -2 -2 -21 20 -41 49 -20 29 -57 68 -81 87 -24 18 -44 39 -44 46
0 27 -71 152 -104 184 l-36 35 1 -55 c1 -52 1 -53 12 -21 5 18 15 31 21 29 16
-5 85 -138 86 -165 0 -15 18 -36 55 -65 54 -41 92 -97 80 -117 -10 -17 -20
-12 -83 46 -34 31 -62 53 -62 51 0 -3 16 -24 35 -47 20 -24 34 -44 32 -47 -3
-2 -30 6 -62 18 -47 18 -59 19 -66 8 -6 -11 -13 -11 -26 -3 -29 18 -43 55 -44
119 0 33 -5 69 -10 80 -6 13 -8 -18 -4 -92 5 -115 -3 -145 -25 -93 -24 59 -37
56 -45 -10 -11 -94 -23 -71 -22 42 1 85 -3 112 -21 155 -25 61 -12 72 17 16
24 -46 26 -40 41 87 6 52 15 109 21 126 6 21 6 46 0 75 -18 77 -11 76 32 -7
41 -78 105 -169 114 -161 2 3 -15 33 -39 68 -23 35 -62 109 -86 164 -24 55
-47 104 -52 108 -13 14 -55 -51 -110 -167 -54 -117 -73 -136 -40 -41 11 32 20
61 20 64 0 11 -95 -136 -158 -244 -80 -139 -145 -271 -140 -286 2 -7 44 26 93
73 92 86 181 158 196 158 5 0 9 -20 9 -45 0 -38 15 -88 55 -188 7 -17 2 -18
-68 -11 -67 6 -79 4 -111 -15 -30 -19 -48 -22 -117 -20 -56 2 -83 7 -86 16 -9
22 36 127 103 245 35 62 64 113 64 115 0 2 -9 3 -20 3 -26 0 -26 -1 11 71 17
34 28 64 24 67 -9 9 -106 -90 -212 -215 -52 -62 -97 -113 -100 -113 -3 0 5 13
18 30 85 105 111 141 106 146 -3 3 -43 -25 -88 -62 -46 -37 -91 -72 -99 -78
-27 -20 106 126 189 209 45 44 81 84 81 89 0 7 -43 81 -66 115 -6 7 -220 -101
-244 -123 -14 -13 -39 -31 -57 -40 -18 -9 -46 -36 -63 -61 -17 -25 -40 -49
-51 -55 -17 -10 -22 -6 -39 37 -11 26 -24 56 -30 65 -6 10 -6 19 0 23 5 3 23
-15 40 -39 17 -25 36 -43 43 -40 7 2 25 25 39 49 17 28 35 45 46 45 11 0 31 9
46 21 44 35 150 163 138 167 -7 2 -1 13 12 25 20 18 53 87 42 87 -2 0 -31 -18
-64 -40 -33 -22 -74 -43 -91 -46 -32 -7 -75 -49 -65 -65 3 -5 -4 -9 -15 -9
-36 0 -23 22 55 95 l76 71 -29 65 c-16 35 -38 71 -48 79 -16 13 -19 13 -29 -4
-28 -47 -51 -67 -106 -92 -35 -15 -62 -35 -66 -46 -3 -11 -3 -50 1 -87 6 -59
4 -68 -14 -85 -12 -11 -21 -14 -21 -8 0 6 5 14 10 17 6 3 10 17 10 31 0 24 -2
24 -50 -18 -28 -24 -78 -78 -111 -120 -74 -94 -132 -148 -160 -148 -19 0 -18
3 12 45 17 24 54 69 81 99 l49 55 -63 -25 c-60 -25 -62 -25 -75 -7 -8 10 -16
29 -19 43 -3 14 -50 153 -106 310 -126 359 -120 341 -125 336 -2 -2 7 -42 21
-87 32 -107 88 -361 80 -368 -7 -8 -43 40 -44 58 0 8 -3 12 -6 9 -3 -3 0 -33
6 -66 14 -77 7 -96 -33 -88 -16 3 -35 2 -42 -4 -9 -8 -12 13 -12 89 -1 55 -4
105 -9 112 -11 19 -31 -60 -26 -105 3 -27 1 -37 -7 -32 -6 4 -11 14 -11 22 0
10 -10 4 -26 -15 -16 -19 -35 -31 -50 -31 -27 0 -31 12 -10 29 18 15 29 104
18 151 -7 32 -11 35 -39 32 -64 -6 -55 57 21 149 55 65 101 138 93 146 -3 2
-19 -21 -36 -51 -24 -43 -38 -57 -63 -64 -26 -7 -32 -13 -30 -31 1 -17 -2 -22
-15 -19 -32 6 -19 41 27 76 41 31 46 39 51 86 5 40 13 58 38 84 35 34 34 54
-1 44 -12 -3 -17 -7 -10 -10 8 -2 4 -14 -13 -36 -13 -17 -27 -51 -31 -75 -9
-56 -39 -90 -112 -129 -73 -39 -122 -83 -122 -110 0 -12 -4 -23 -9 -26 -4 -3
-4 17 1 44 7 40 26 73 93 162 47 62 83 114 80 116 -8 8 -62 -38 -89 -77 -22
-31 -48 -49 -117 -82 -95 -45 -104 -57 -67 -97 l23 -23 -25 -19 c-14 -11 -45
-26 -69 -35 -25 -8 -55 -25 -68 -37 l-23 -21 0 24 c0 13 9 43 20 67 10 23 17
42 14 42 -2 0 -36 -16 -75 -36 -39 -19 -75 -34 -80 -32 -17 6 544 351 616 380
112 44 112 44 172 -80z m713 32 c0 4 5 4 10 1 6 -4 7 -12 3 -18 -4 -7 -6 -20
-4 -30 2 -15 -2 -17 -17 -13 -11 4 -23 2 -27 -4 -10 -17 -25 -11 -25 9 0 11
-5 21 -11 23 -7 2 -2 15 12 30 22 25 25 25 41 11 10 -9 18 -13 18 -9z m-966
-263 c-28 -67 -28 -67 -5 -100 20 -28 22 -39 16 -88 -4 -33 -3 -53 2 -50 6 4
8 -27 5 -76 -4 -71 -8 -86 -30 -109 -21 -23 -23 -30 -12 -43 15 -18 7 -30 -15
-22 -22 9 -18 42 10 75 30 36 30 43 5 118 -13 36 -17 60 -10 62 5 2 10 10 10
18 0 54 -121 -57 -144 -132 -13 -45 -15 -46 -15 -17 -1 46 11 71 67 135 58 66
71 102 46 129 -20 23 -12 61 19 93 27 27 61 31 51 7z m-107 -107 c-7 -32 -16
-65 -20 -71 -14 -22 -27 -14 -27 17 0 19 -5 30 -14 30 -8 0 -21 3 -29 6 -11 4
-20 -8 -32 -46 -9 -28 -14 -58 -11 -67 7 -17 -10 -43 -27 -43 -16 0 -2 72 28
139 15 33 30 61 33 61 3 0 14 -7 23 -16 17 -15 20 -15 43 -1 13 9 27 26 31 37
13 41 14 13 2 -46z m2493 -194 c0 -5 -4 -10 -10 -10 -5 0 -10 5 -10 10 0 6 5
10 10 10 6 0 10 -4 10 -10z m0 -60 c0 -5 -4 -10 -10 -10 -5 0 -10 5 -10 10 0
6 5 10 10 10 6 0 10 -4 10 -10z m50 0 c0 -5 -7 -10 -16 -10 -8 0 -12 5 -9 10
3 6 10 10 16 10 5 0 9 -4 9 -10z m710 -50 c0 -5 -4 -10 -10 -10 -5 0 -10 5
-10 10 0 6 5 10 10 10 6 0 10 -4 10 -10z m-710 -20 c0 -5 -4 -10 -9 -10 -6 0
-13 5 -16 10 -3 6 1 10 9 10 9 0 16 -4 16 -10z m-710 -170 c-19 -125 -18 -121
-44 -114 -17 4 -28 0 -39 -16 -18 -26 -24 -18 -33 49 -6 43 -3 61 16 102 15
30 30 49 40 49 22 0 36 17 46 55 l8 30 9 -40 c5 -25 4 -68 -3 -115z m1380 140
c0 -5 -4 -10 -10 -10 -5 0 -10 5 -10 10 0 6 5 10 10 10 6 0 10 -4 10 -10z m40
0 c0 -5 -4 -10 -10 -10 -5 0 -10 5 -10 10 0 6 5 10 10 10 6 0 10 -4 10 -10z
m-3602 -26 c-8 -7 -88 -8 -95 0 -4 3 18 6 47 6 29 0 51 -3 48 -6z m90 -1 c-10
-2 -26 -2 -35 0 -10 3 -2 5 17 5 19 0 27 -2 18 -5z m2752 -3 c0 -5 -4 -10 -10
-10 -5 0 -10 5 -10 10 0 6 5 10 10 10 6 0 10 -4 10 -10z m50 0 c0 -5 -7 -10
-16 -10 -8 0 -12 5 -9 10 3 6 10 10 16 10 5 0 9 -4 9 -10z m-2670 -295 l0
-275 -160 0 -160 0 0 275 0 275 160 0 160 0 0 -275z m3340 265 c0 -5 -4 -10
-10 -10 -5 0 -10 5 -10 10 0 6 5 10 10 10 6 0 10 -4 10 -10z m-720 -40 c0 -5
-4 -10 -10 -10 -5 0 -10 5 -10 10 0 6 5 10 10 10 6 0 10 -4 10 -10z m720 -10
c0 -5 -4 -10 -10 -10 -5 0 -10 5 -10 10 0 6 5 10 10 10 6 0 10 -4 10 -10z m40
0 c0 -5 -4 -10 -10 -10 -5 0 -10 5 -10 10 0 6 5 10 10 10 6 0 10 -4 10 -10z
m-760 -50 c0 -5 -4 -10 -10 -10 -5 0 -10 5 -10 10 0 6 5 10 10 10 6 0 10 -4
10 -10z m50 0 c0 -5 -7 -10 -16 -10 -8 0 -12 5 -9 10 3 6 10 10 16 10 5 0 9
-4 9 -10z m710 -10 c0 -5 -4 -10 -10 -10 -5 0 -10 5 -10 10 0 6 5 10 10 10 6
0 10 -4 10 -10z m-370 -10 c0 -5 -4 -10 -10 -10 -5 0 -10 5 -10 10 0 6 5 10
10 10 6 0 10 -4 10 -10z m30 0 c0 -5 -4 -10 -10 -10 -5 0 -10 5 -10 10 0 6 5
10 10 10 6 0 10 -4 10 -10z m0 -30 c0 -5 -5 -10 -11 -10 -5 0 -7 5 -4 10 3 6
8 10 11 10 2 0 4 -4 4 -10z m300 -10 c0 -5 -4 -10 -10 -10 -5 0 -10 5 -10 10
0 6 5 10 10 10 6 0 10 -4 10 -10z m40 0 c0 -5 -4 -10 -10 -10 -5 0 -10 5 -10
10 0 6 5 10 10 10 6 0 10 -4 10 -10z m-760 -10 c0 -5 -4 -10 -10 -10 -5 0 -10
5 -10 10 0 6 5 10 10 10 6 0 10 -4 10 -10z m420 -20 c0 -5 -2 -10 -4 -10 -3 0
-8 5 -11 10 -3 6 -1 10 4 10 6 0 11 -4 11 -10z m-30 -30 c0 -5 -4 -10 -10 -10
-5 0 -10 5 -10 10 0 6 5 10 10 10 6 0 10 -4 10 -10z m30 0 c0 -5 -2 -10 -4
-10 -3 0 -8 5 -11 10 -3 6 -1 10 4 10 6 0 11 -4 11 -10z m340 0 c0 -5 -4 -10
-10 -10 -5 0 -10 5 -10 10 0 6 5 10 10 10 6 0 10 -4 10 -10z m-710 -10 c0 -5
-7 -10 -16 -10 -8 0 -12 5 -9 10 3 6 10 10 16 10 5 0 9 -4 9 -10z m370 -20 c0
-5 -5 -10 -11 -10 -5 0 -7 5 -4 10 3 6 8 10 11 10 2 0 4 -4 4 -10z m250 -15
c0 -8 -4 -15 -10 -15 -5 0 -10 7 -10 15 0 8 5 15 10 15 6 0 10 -7 10 -15z m50
-5 c0 -5 -4 -10 -10 -10 -5 0 -10 5 -10 10 0 6 5 10 10 10 6 0 10 -4 10 -10z
m-1441 -49 c6 -19 11 -50 10 -70 -1 -35 -1 -35 -19 19 -20 58 -26 111 -11 95
4 -6 13 -25 20 -44z m771 19 c0 -5 -4 -10 -9 -10 -6 0 -13 5 -16 10 -3 6 1 10
9 10 9 0 16 -4 16 -10z m370 -20 c0 -5 -2 -10 -4 -10 -3 0 -8 5 -11 10 -3 6
-1 10 4 10 6 0 11 -4 11 -10z m210 -5 c0 -8 -4 -15 -10 -15 -5 0 -10 7 -10 15
0 8 5 15 10 15 6 0 10 -7 10 -15z m40 0 c0 -8 -4 -15 -10 -15 -5 0 -10 7 -10
15 0 8 5 15 10 15 6 0 10 -7 10 -15z m50 1 c0 -3 -4 -8 -10 -11 -5 -3 -10 -1
-10 4 0 6 5 11 10 11 6 0 10 -2 10 -4z m-330 -26 c0 -5 -4 -10 -10 -10 -5 0
-10 5 -10 10 0 6 5 10 10 10 6 0 10 -4 10 -10z m30 0 c0 -5 -5 -10 -11 -10 -5
0 -7 5 -4 10 3 6 8 10 11 10 2 0 4 -4 4 -10z m-420 -10 c0 -5 -4 -10 -10 -10
-5 0 -10 5 -10 10 0 6 5 10 10 10 6 0 10 -4 10 -10z m570 0 c0 -5 -4 -10 -10
-10 -5 0 -10 5 -10 10 0 6 5 10 10 10 6 0 10 -4 10 -10z m250 -10 c0 -5 -5
-10 -11 -10 -5 0 -7 5 -4 10 3 6 8 10 11 10 2 0 4 -4 4 -10z m-190 -14 c0 -8
-4 -18 -10 -21 -5 -3 -10 3 -10 14 0 12 5 21 10 21 6 0 10 -6 10 -14z m-720
-16 c0 -5 -2 -10 -4 -10 -3 0 -8 5 -11 10 -3 6 -1 10 4 10 6 0 11 -4 11 -10z
m660 0 c0 -5 -4 -10 -10 -10 -5 0 -10 5 -10 10 0 6 5 10 10 10 6 0 10 -4 10
-10z m250 -10 c0 -5 -2 -10 -4 -10 -3 0 -8 5 -11 10 -3 6 -1 10 4 10 6 0 11
-4 11 -10z m-960 -10 c0 -5 -2 -10 -4 -10 -3 0 -8 5 -11 10 -3 6 -1 10 4 10 6
0 11 -4 11 -10z m560 0 c0 -5 -2 -10 -4 -10 -3 0 -8 5 -11 10 -3 6 -1 10 4 10
6 0 11 -4 11 -10z m40 6 c0 -3 -4 -8 -10 -11 -5 -3 -10 -1 -10 4 0 6 5 11 10
11 6 0 10 -2 10 -4z m-460 -16 c0 -5 -4 -10 -10 -10 -5 0 -10 5 -10 10 0 6 5
10 10 10 6 0 10 -4 10 -10z m50 0 c0 -5 -4 -10 -9 -10 -6 0 -13 5 -16 10 -3 6
1 10 9 10 9 0 16 -4 16 -10z m-140 -10 c0 -5 -5 -10 -11 -10 -5 0 -7 5 -4 10
3 6 8 10 11 10 2 0 4 -4 4 -10z m30 0 c0 -5 -5 -10 -11 -10 -5 0 -7 5 -4 10 3
6 8 10 11 10 2 0 4 -4 4 -10z m690 -10 c0 -11 -4 -20 -10 -20 -5 0 -10 9 -10
20 0 11 5 20 10 20 6 0 10 -9 10 -20z m40 0 c0 -11 -4 -20 -10 -20 -5 0 -10 9
-10 20 0 11 5 20 10 20 6 0 10 -9 10 -20z m50 16 c0 -3 -4 -8 -10 -11 -5 -3
-10 -1 -10 4 0 6 5 11 10 11 6 0 10 -2 10 -4z m40 -6 c0 -5 -4 -10 -10 -10 -5
0 -10 5 -10 10 0 6 5 10 10 10 6 0 10 -4 10 -10z m-900 -10 c0 -5 -2 -10 -4
-10 -3 0 -8 5 -11 10 -3 6 -1 10 4 10 6 0 11 -4 11 -10z m530 0 c0 -5 -4 -10
-10 -10 -5 0 -10 5 -10 10 0 6 5 10 10 10 6 0 10 -4 10 -10z m-560 -30 c0 -5
-4 -10 -10 -10 -5 0 -10 5 -10 10 0 6 5 10 10 10 6 0 10 -4 10 -10z m30 0 c0
-5 -5 -10 -11 -10 -5 0 -7 5 -4 10 3 6 8 10 11 10 2 0 4 -4 4 -10z m360 0 c0
-5 -4 -10 -10 -10 -5 0 -10 5 -10 10 0 6 5 10 10 10 6 0 10 -4 10 -10z m170 0
c0 -5 -4 -10 -10 -10 -5 0 -10 5 -10 10 0 6 5 10 10 10 6 0 10 -4 10 -10z m30
0 c0 -5 -5 -10 -11 -10 -5 0 -7 5 -4 10 3 6 8 10 11 10 2 0 4 -4 4 -10z m-370
-10 c0 -5 -7 -10 -16 -10 -8 0 -12 5 -9 10 3 6 10 10 16 10 5 0 9 -4 9 -10z
m670 0 c0 -5 -4 -10 -10 -10 -5 0 -10 5 -10 10 0 6 5 10 10 10 6 0 10 -4 10
-10z m-50 -26 c0 -8 -4 -14 -10 -14 -5 0 -10 9 -10 21 0 11 5 17 10 14 6 -3
10 -13 10 -21z m245 7 c3 -5 1 -12 -5 -16 -5 -3 -10 1 -10 9 0 18 6 21 15 7z
m-795 -5 c0 -3 -4 -8 -10 -11 -5 -3 -10 -1 -10 4 0 6 5 11 10 11 6 0 10 -2 10
-4z m100 -6 c0 -5 -4 -10 -10 -10 -5 0 -10 5 -10 10 0 6 5 10 10 10 6 0 10 -4
10 -10z m-2833 -90 c10 -25 9 -26 -22 -26 -31 0 -32 2 -24 24 19 51 25 51 46
2z m93 4 c0 -13 5 -24 11 -24 5 0 8 -4 4 -10 -12 -20 -35 3 -35 37 0 20 4 32
10 28 6 -3 10 -17 10 -31z m100 1 c0 -19 -4 -35 -10 -35 -11 0 -14 53 -3 63
11 12 13 8 13 -28z m110 25 c0 -5 -8 -11 -17 -11 -16 -1 -16 -2 0 -6 18 -5 18
-5 0 -19 -17 -13 -17 -13 0 -14 10 0 16 -4 12 -10 -12 -20 -35 3 -35 36 0 27
4 34 20 34 11 0 20 -4 20 -10z m110 -16 c0 9 5 16 10 16 6 0 10 -13 10 -30 0
-36 -25 -41 -36 -7 l-8 22 -7 -25 c-6 -21 -7 -18 -8 15 l0 40 19 -24 c15 -18
20 -19 20 -7z m300 0 c0 9 5 16 10 16 6 0 10 -13 10 -30 0 -36 -25 -41 -36 -7
l-8 22 -7 -25 c-6 -21 -7 -18 -8 15 l0 40 19 -24 c15 -18 20 -19 20 -7z m101
-1 l11 -28 13 30 c15 35 20 19 5 -19 -13 -35 -26 -33 -39 5 -13 36 -13 39 -6
39 3 0 10 -12 16 -27z m154 -13 c5 -22 3 -25 -24 -26 -27 -1 -29 1 -20 24 19
51 32 51 44 2z m110 30 c3 -5 -2 -10 -12 -10 -17 -1 -17 -1 0 -11 9 -5 17 -16
17 -23 0 -17 -27 -29 -35 -16 -4 6 2 10 11 10 16 0 16 1 -1 14 -11 8 -16 19
-12 30 7 18 23 21 32 6z m82 -52 c-2 -13 -4 -3 -4 22 0 25 2 35 4 23 2 -13 2
-33 0 -45z m133 43 c12 -23 5 -47 -17 -55 -33 -13 -57 36 -31 62 18 18 36 15
48 -7z m123 0 c3 17 5 13 6 -13 1 -40 -11 -49 -28 -20 -10 16 -10 16 -11 0 0
-10 -4 -18 -10 -18 -11 0 -14 53 -3 64 4 4 15 -3 24 -16 l17 -22 5 25z m197 9
c0 -5 -6 -10 -12 -10 -9 0 -8 -4 2 -10 10 -7 12 -12 4 -17 -6 -5 -14 -15 -17
-23 -3 -8 -6 4 -6 28 -1 31 3 42 14 42 8 0 15 -4 15 -10z m117 -28 c1 -27 -1
-31 -13 -21 -10 8 -14 8 -14 0 0 -6 -4 -11 -10 -11 -11 0 -14 53 -3 64 17 16
38 -1 40 -32z m131 2 c3 -33 -15 -49 -43 -38 -18 7 -20 60 -2 67 26 12 42 1
45 -29z m106 9 c10 -18 15 -22 16 -12 0 9 7 22 15 29 13 11 15 7 14 -26 -1
-33 -2 -35 -8 -14 -7 25 -7 25 -13 3 -7 -26 -28 -31 -28 -8 0 8 -4 15 -10 15
-5 0 -7 -7 -4 -15 4 -8 1 -15 -5 -15 -12 0 -15 52 -4 63 10 10 11 9 27 -20z
m250 21 c20 -8 21 -47 2 -63 -21 -18 -46 -2 -46 29 0 16 6 31 13 33 6 3 13 6
14 6 1 1 8 -2 17 -5z m101 -26 c0 -12 6 -23 13 -25 7 -3 12 5 12 21 0 14 5 26
10 26 15 0 12 -46 -4 -59 -24 -20 -46 -2 -46 37 0 19 3 32 7 28 4 -4 8 -17 8
-28z m155 22 c0 -5 -4 -10 -9 -10 -5 0 -8 -11 -6 -25 1 -14 -2 -25 -6 -25 -5
0 -9 11 -9 25 0 14 -4 25 -10 25 -5 0 -10 5 -10 10 0 6 11 10 25 10 14 0 25
-4 25 -10z m110 0 c0 -5 -8 -10 -17 -11 -12 0 -13 -2 -5 -6 10 -4 10 -8 1 -19
-9 -11 -8 -14 7 -14 13 0 15 -3 7 -11 -18 -18 -33 -1 -33 37 0 27 4 34 20 34
11 0 20 -4 20 -10z m106 -2 c10 -16 11 -58 2 -58 -4 0 -8 5 -8 10 0 17 -18 11
-23 -7 -3 -10 -5 1 -6 25 -1 30 3 42 13 42 8 0 18 -5 22 -12z m114 2 c0 -5 -6
-10 -12 -10 -8 0 -4 -7 7 -15 18 -14 18 -16 2 -32 -13 -13 -19 -15 -29 -5 -9
9 -8 12 7 12 18 0 18 1 -1 21 -16 17 -16 22 -4 29 20 13 30 12 30 0z m104 4
c22 -8 20 -26 -4 -47 -27 -23 -30 -22 -30 11 0 39 7 46 34 36z m133 -34 c10
-25 9 -26 -22 -26 -31 0 -32 2 -24 24 19 51 25 51 46 2z m117 31 c3 -5 -3 -11
-14 -14 -26 -7 -25 -26 2 -36 13 -4 17 -10 11 -14 -21 -13 -43 5 -43 33 0 32
31 53 44 31z m106 -1 c0 -5 -6 -10 -12 -11 -9 0 -9 -2 1 -6 11 -5 11 -7 0 -15
-11 -7 -11 -11 -1 -15 20 -8 14 -22 -8 -16 -29 8 -24 73 6 73 8 0 14 -4 14
-10z m-2660 -30 c0 -16 -4 -30 -10 -30 -5 0 -10 14 -10 30 0 17 5 30 10 30 6
0 10 -13 10 -30z m-703 -147 c-4 -15 -5 -14 -6 5 0 12 -5 22 -10 22 -5 0 -12
-10 -14 -22 -3 -14 -5 -8 -6 15 l-1 38 21 -20 c12 -11 19 -27 16 -38z m410 0
c-4 -15 -5 -14 -6 5 0 12 -5 22 -10 22 -5 0 -12 -10 -14 -22 -3 -14 -5 -8 -6
15 l-1 38 21 -20 c12 -11 19 -27 16 -38z m400 0 c-4 -15 -5 -14 -6 5 0 12 -5
22 -10 22 -5 0 -12 -10 -14 -22 -3 -14 -5 -8 -6 15 l-1 38 21 -20 c12 -11 19
-27 16 -38z m130 5 c-2 -13 -4 -5 -4 17 -1 22 1 32 4 23 2 -10 2 -28 0 -40z
m920 0 c-2 -13 -4 -5 -4 17 -1 22 1 32 4 23 2 -10 2 -28 0 -40z m100 -2 c-12
-31 -37 -18 -37 19 l0 36 21 -20 c13 -12 19 -26 16 -35z m43 24 c9 14 40 7 40
-10 0 -5 -8 -10 -17 -11 -15 0 -15 -2 2 -9 19 -8 19 -9 -2 -9 -13 -1 -23 5
-23 12 0 8 -4 7 -10 -3 -7 -11 -9 -4 -8 25 0 26 2 32 5 16 4 -17 7 -20 13 -11z
m287 -27 c-4 -15 -5 -14 -6 5 0 12 -5 22 -10 22 -5 0 -12 -10 -14 -22 -3 -14
-5 -8 -6 15 l-1 38 21 -20 c12 -11 19 -27 16 -38z m-2634 40 c-31 -6 -31 -40
0 -46 l22 -4 -23 -2 c-24 -1 -38 20 -28 44 3 8 16 14 28 14 l23 -2 -22 -4z
m234 -40 c-3 -10 -5 -2 -5 17 0 19 2 27 5 18 2 -10 2 -26 0 -35z m148 12 c0
-14 -2 -25 -6 -25 -8 0 -18 48 -11 55 9 8 15 -4 17 -30z m209 19 c9 -23 8 -24
-14 -24 -22 0 -23 1 -14 24 8 20 20 20 28 0z m101 -19 c0 -14 -2 -25 -6 -25
-8 0 -18 48 -11 55 9 8 15 -4 17 -30z m287 0 c-6 -34 -12 -32 -12 6 0 16 4 28
9 25 4 -3 6 -17 3 -31z m47 3 c-1 -25 -3 -27 -6 -10 -4 20 -7 21 -20 10 -15
-12 -15 -11 -2 10 19 31 29 28 28 -10z m28 -15 c-3 -10 -5 -2 -5 17 0 19 2 27
5 18 2 -10 2 -26 0 -35z m308 36 c4 -6 -2 -19 -14 -30 l-21 -20 0 31 c0 30 21
42 35 19z m190 -24 c0 -14 -2 -25 -6 -25 -8 0 -18 48 -11 55 9 8 15 -4 17 -30z
m200 25 c4 -6 2 -17 -5 -24 -8 -11 -8 -15 2 -19 7 -3 3 -6 -9 -6 -26 -1 -31
14 -8 23 20 7 19 24 -2 29 -16 4 -16 5 -1 6 9 0 20 -4 23 -9z m60 -20 c0 -36
-29 -33 -33 3 -3 23 0 28 15 25 12 -2 18 -12 18 -28z m60 20 c4 -6 2 -17 -5
-24 -8 -11 -8 -15 2 -19 7 -3 2 -6 -11 -6 -23 -1 -23 0 -8 17 21 23 21 29 0
35 -16 4 -16 5 -1 6 9 0 20 -4 23 -9z m179 -6 c9 -23 8 -24 -16 -23 -22 0 -22
1 -3 9 11 5 14 9 8 9 -7 1 -13 6 -13 11 0 16 17 12 24 -6z m133 -31 c-3 -10
-5 -2 -5 17 0 19 2 27 5 18 2 -10 2 -26 0 -35z m308 12 c0 -14 -2 -25 -6 -25
-8 0 -18 48 -11 55 9 8 15 -4 17 -30z m90 24 c4 -6 -2 -19 -14 -30 l-21 -20 0
31 c0 30 21 42 35 19z m140 -24 c0 -14 -3 -25 -7 -25 -4 0 -8 10 -9 23 l0 22
-9 -22 c-10 -25 -35 -31 -43 -10 -8 20 9 41 27 34 8 -3 18 -2 22 4 9 15 17 3
19 -26z m107 -13 c-4 -11 -6 -11 -13 0 -7 10 -12 11 -29 1 -24 -15 -40 -17
-40 -3 0 5 7 7 15 4 10 -4 15 0 15 11 0 11 -5 15 -15 11 -8 -3 -15 -1 -15 4 0
11 23 13 34 3 9 -9 36 -13 35 -5 -3 20 3 24 10 7 5 -11 6 -26 3 -33z m-2767
13 c0 -11 -8 -21 -17 -23 -10 -2 -18 1 -18 7 0 6 7 8 15 5 10 -4 15 0 15 11 0
11 -5 15 -15 11 -8 -3 -15 -1 -15 5 0 6 8 9 18 7 9 -2 17 -12 17 -23z m52 9
c3 -9 -3 -23 -16 -35 l-21 -20 0 36 c0 37 25 50 37 19z m46 -7 c10 9 8 -9 -1
-24 -5 -8 -12 -2 -20 20 -10 27 -9 29 2 15 7 -10 16 -15 19 -11z m51 15 c-7
-4 -14 -16 -17 -27 -4 -15 -5 -14 -6 8 -1 20 4 27 17 27 11 0 13 -3 6 -8z m74
-24 c-2 -24 -8 -34 -23 -35 l-20 -3 20 9 c17 8 18 10 3 10 -10 1 -18 5 -18 11
0 5 7 7 15 4 10 -4 15 0 15 11 0 11 -5 15 -15 11 -8 -3 -15 -1 -15 4 0 6 9 10
21 10 17 0 20 -5 17 -32z m199 26 c-3 -3 -12 -4 -19 -1 -8 3 -5 6 6 6 11 1 17
-2 13 -5z m170 -24 c1 -22 1 -22 -4 -2 -2 12 -8 22 -13 22 -5 0 -11 -10 -13
-22 -4 -19 -5 -18 -6 5 -1 22 3 28 17 25 10 -2 18 -13 19 -28z m158 5 c0 -11
-8 -21 -17 -23 -10 -2 -18 1 -18 7 0 6 7 8 15 5 10 -4 15 0 15 11 0 11 -5 15
-15 11 -8 -3 -15 -1 -15 5 0 6 8 9 18 7 9 -2 17 -12 17 -23z m52 -5 c1 -22 1
-22 -4 -2 -2 12 -8 22 -13 22 -5 0 -11 -10 -13 -22 -4 -19 -5 -18 -6 5 -1 22
3 28 17 25 10 -2 18 -13 19 -28z m46 7 c10 9 8 -9 -1 -24 -5 -8 -12 -2 -20 20
-10 27 -9 29 2 15 7 -10 16 -15 19 -11z m187 19 c0 -2 -7 -6 -15 -10 -8 -3
-15 -1 -15 4 0 6 7 10 15 10 8 0 15 -2 15 -4z m118 -24 c3 -17 -2 -22 -17 -22
-25 0 -29 30 -3 31 15 0 14 2 -3 10 l-20 9 20 -3 c12 -1 21 -11 23 -25z m50
11 c2 -7 -5 -13 -15 -14 -16 0 -16 -1 2 -9 19 -8 19 -9 -2 -9 -18 -1 -23 5
-23 25 0 18 5 25 17 22 9 -2 18 -9 21 -15z m169 0 c3 -7 9 -10 14 -7 11 7 11
-7 0 -24 -6 -10 -10 -6 -16 15 -7 27 -7 27 -16 6 -8 -22 -39 -33 -39 -13 0 5
7 7 15 4 10 -4 15 0 15 11 0 11 -5 15 -15 11 -8 -3 -15 -1 -15 4 0 14 52 8 57
-7z m80 -13 c1 -22 1 -22 -4 -2 -2 12 -8 22 -13 22 -5 0 -11 -10 -13 -22 -4
-19 -5 -18 -6 5 -1 22 3 28 17 25 10 -2 18 -13 19 -28z m101 7 c4 -21 -27 -35
-38 -17 -12 19 0 42 19 38 9 -2 17 -11 19 -21z m49 -7 c1 -22 1 -22 -4 -2 -2
12 -8 22 -13 22 -5 0 -11 -10 -13 -22 -4 -19 -5 -18 -6 5 -1 22 3 28 17 25 10
-2 18 -13 19 -28z m436 7 c4 3 7 1 7 -5 0 -23 -18 -20 -29 6 -10 23 -10 25 2
10 8 -10 17 -15 20 -11z m65 -5 c3 -18 -1 -22 -20 -21 -20 1 -21 2 -3 7 l20 5
-20 8 -20 8 20 1 20 1 -20 10 -20 9 20 -3 c12 -1 21 -11 23 -25z m90 0 c3 -18
-1 -22 -20 -21 -20 1 -21 2 -3 7 l20 5 -20 8 -20 8 20 1 20 1 -20 10 -20 9 20
-3 c12 -1 21 -11 23 -25z m210 0 c3 -18 -1 -22 -20 -21 -20 1 -21 2 -3 7 l20
5 -20 8 -20 8 20 1 20 1 -20 10 -20 9 20 -3 c12 -1 21 -11 23 -25z m458 0 c1
-18 1 -19 -3 -2 -6 27 -23 25 -24 -2 l-2 -23 -4 23 c-2 12 -8 22 -13 22 -5 0
-11 -10 -13 -22 -4 -19 -4 -18 -6 5 -1 26 2 28 32 25 25 -2 32 -8 33 -26z m62
11 c2 -7 -5 -13 -15 -14 -16 0 -16 -1 2 -9 19 -8 19 -9 -2 -9 -18 -1 -23 5
-23 25 0 18 5 25 17 22 9 -2 18 -9 21 -15z m72 13 c0 -2 -7 -6 -15 -10 -8 -3
-15 -1 -15 4 0 6 7 10 15 10 8 0 15 -2 15 -4z m58 -19 c4 -21 -27 -35 -38 -17
-12 19 0 42 19 38 9 -2 17 -11 19 -21z m78 -5 c1 -18 1 -19 -3 -2 -6 27 -23
25 -24 -2 l-2 -23 -4 23 c-2 12 -8 22 -13 22 -5 0 -11 -10 -13 -22 -4 -19 -4
-18 -6 5 -1 26 2 28 32 25 25 -2 32 -8 33 -26z m-2709 -8 c-3 -3 -12 -4 -19
-1 -8 3 -5 6 6 6 11 1 17 -2 13 -5z m613 -10 c0 -2 -7 -4 -15 -4 -8 0 -15 4
-15 10 0 5 7 7 15 4 8 -4 15 -8 15 -10z m1960 0 c0 -2 -7 -4 -15 -4 -8 0 -15
4 -15 10 0 5 7 7 15 4 8 -4 15 -8 15 -10z m-1127 -1 c-7 -2 -19 -2 -25 0 -7 3
-2 5 12 5 14 0 19 -2 13 -5z"/>
<path d="M2123 5703 c15 -2 37 -2 50 0 12 2 0 4 -28 4 -27 0 -38 -2 -22 -4z"/>
<path d="M627 5625 c-9 -8 -17 -20 -20 -27 -3 -9 -9 -8 -19 6 -19 24 -34 5
-18 -23 5 -11 10 -31 10 -45 0 -14 5 -26 10 -26 6 0 10 6 10 13 0 6 11 36 25
65 25 55 26 61 2 37z"/>
<path d="M496 5570 c-3 -16 -9 -44 -12 -60 -6 -30 -5 -31 23 -24 36 9 43 13
43 25 0 6 -9 7 -21 4 -21 -7 -21 -5 -15 39 8 51 -9 66 -18 16z"/>
<path d="M467 5580 c-3 -8 -9 -28 -14 -44 l-9 -29 -13 31 c-15 36 -26 40 -39
15 -13 -25 -22 -103 -12 -103 11 0 20 26 21 58 0 27 0 27 17 -6 22 -45 45 -38
54 18 9 49 6 87 -5 60z"/>
<path d="M314 5538 c-40 -19 -60 -100 -28 -112 37 -14 88 43 82 92 -3 30 -22
36 -54 20z m30 -27 c10 -15 -12 -61 -28 -61 -22 0 -27 15 -16 44 9 26 33 35
44 17z"/>
<path d="M480 5450 c-11 -11 -22 -15 -25 -10 -9 15 -20 12 -46 -10 l-24 -20
29 6 c32 8 32 4 -12 -54 -14 -18 -23 -35 -20 -37 8 -8 62 11 66 25 3 9 -1 11
-12 7 -22 -9 -20 6 4 28 20 18 20 17 20 -8 0 -20 5 -27 19 -27 28 0 51 38 51
82 0 44 -18 50 -50 18z m26 -56 c-4 -13 -11 -24 -16 -24 -14 0 -12 37 2 63 11
20 12 20 16 4 2 -10 1 -29 -2 -43z"/>
<path d="M556 5454 c-16 -42 1 -76 24 -49 11 13 10 14 -4 9 -23 -9 -22 32 2
45 15 9 15 10 1 11 -9 0 -20 -7 -23 -16z"/>
<path d="M918 5575 c-8 -9 26 -95 37 -95 13 0 45 89 35 95 -5 3 -14 -12 -21
-32 l-12 -38 -11 32 c-12 35 -20 46 -28 38z"/>
<path d="M1020 5530 c0 -32 4 -49 10 -45 6 3 10 24 10 45 0 21 -4 42 -10 45
-6 4 -10 -13 -10 -45z"/>
<path d="M1067 5573 c-10 -10 -8 -81 2 -88 5 -3 11 9 13 27 l3 33 18 -32 c25
-47 37 -41 37 18 0 31 -4 48 -10 44 -5 -3 -10 -16 -10 -28 -1 -21 -2 -20 -18
6 -17 28 -24 32 -35 20z"/>
<path d="M1160 5570 c0 -5 7 -10 15 -10 10 0 13 -10 11 -36 -1 -19 1 -37 6
-40 4 -3 8 13 8 35 0 30 4 41 15 41 8 0 15 5 15 10 0 6 -16 10 -35 10 -19 0
-35 -4 -35 -10z"/>
<path d="M1256 5533 c-9 -25 -13 -49 -10 -52 4 -3 9 0 11 7 6 15 35 16 51 0 9
-9 12 -8 12 5 0 26 -27 87 -39 87 -5 0 -16 -21 -25 -47z m30 -10 c-10 -10 -19
5 -10 18 6 11 8 11 12 0 2 -7 1 -15 -2 -18z"/>
<path d="M1356 5564 c-32 -32 -6 -88 38 -82 30 4 37 58 7 58 -23 0 -29 -16 -8
-23 6 -2 9 -8 5 -12 -14 -15 -39 5 -36 27 2 17 11 24 31 26 15 2 25 8 22 13
-9 14 -42 11 -59 -7z"/>
<path d="M1450 5530 c0 -47 2 -50 25 -50 14 0 25 5 25 10 0 6 -7 10 -15 10
-20 0 -19 10 3 26 16 13 16 13 0 14 -22 0 -24 20 -3 20 8 0 15 5 15 10 0 6
-11 10 -25 10 -23 0 -25 -3 -25 -50z"/>
<path d="M1560 5571 c0 -5 6 -11 13 -14 9 -3 12 -16 9 -35 -2 -16 1 -33 7 -36
7 -5 11 7 11 33 0 30 4 41 15 41 8 0 15 5 15 10 0 6 -16 10 -35 10 -19 0 -35
-4 -35 -9z"/>
<path d="M1656 5533 c-9 -25 -13 -49 -10 -52 4 -3 9 0 11 7 6 15 35 16 51 0 9
-9 12 -8 12 5 0 26 -27 87 -39 87 -5 0 -16 -21 -25 -47z m30 -10 c-10 -10 -19
5 -10 18 6 11 8 11 12 0 2 -7 1 -15 -2 -18z"/>
<path d="M1752 5543 c-1 -24 -3 -46 -4 -50 -2 -5 9 -9 25 -11 15 -2 27 1 27 7
0 6 -9 11 -19 11 -16 0 -21 8 -24 43 l-4 42 -1 -42z"/>
<path d="M1820 5530 c0 -47 2 -50 25 -50 14 0 25 5 25 10 0 6 -9 10 -20 10
-11 0 -20 5 -20 10 0 6 7 10 15 10 8 0 15 5 15 10 0 6 -7 10 -15 10 -8 0 -15
5 -15 10 0 6 9 10 20 10 11 0 20 5 20 10 0 6 -11 10 -25 10 -23 0 -25 -3 -25
-50z"/>
<path d="M1903 5573 c-19 -7 -15 -31 7 -45 26 -17 25 -28 -2 -28 -16 0 -19 -3
-11 -11 15 -15 53 -2 53 18 0 8 -10 23 -22 34 l-23 18 23 1 c13 0 20 4 17 10
-7 11 -22 12 -42 3z"/>
<path d="M2017 5573 c-11 -10 -8 -93 3 -93 6 0 10 9 10 20 0 11 7 20 15 20 8
0 15 5 15 10 0 6 -7 10 -15 10 -8 0 -15 5 -15 10 0 6 9 10 21 10 11 0 17 5 14
10 -7 11 -38 13 -48 3z"/>
<path d="M2090 5530 c0 -48 19 -74 21 -27 l0 22 16 -22 c15 -23 40 -33 27 -12
-4 7 -7 26 -6 43 1 32 -11 46 -40 46 -15 0 -18 -9 -18 -50z m40 20 c0 -5 -4
-10 -10 -10 -5 0 -10 5 -10 10 0 6 5 10 10 10 6 0 10 -4 10 -10z"/>
<path d="M2192 5568 c-7 -7 -12 -27 -12 -45 0 -27 5 -34 25 -39 32 -8 55 11
55 45 0 30 -16 51 -40 51 -9 0 -21 -5 -28 -12z m48 -38 c0 -23 -5 -30 -19 -30
-10 0 -21 7 -25 15 -8 23 4 45 25 45 14 0 19 -7 19 -30z"/>
<path d="M2290 5529 c0 -27 4 -48 8 -45 5 3 7 20 6 38 l-4 33 17 -37 c8 -21
19 -38 23 -38 4 0 14 17 23 38 l15 37 1 -39 c1 -29 4 -37 12 -29 14 14 7 85
-9 91 -7 2 -18 -11 -26 -29 l-14 -33 -16 32 c-24 46 -36 39 -36 -19z"/>
<path d="M2478 5569 c-21 -12 -24 -59 -6 -77 26 -26 78 -1 78 38 0 21 -25 50
-43 50 -7 0 -20 -5 -29 -11z m47 -39 c0 -29 -32 -41 -41 -16 -9 24 4 48 23 44
12 -2 18 -12 18 -28z"/>
<path d="M2565 5570 c-3 -5 1 -10 9 -10 12 0 16 -10 16 -40 0 -22 5 -40 10
-40 6 0 10 18 10 40 0 22 5 40 10 40 6 0 10 5 10 10 0 6 -13 10 -29 10 -17 0
-33 -4 -36 -10z"/>
<path d="M2658 5574 c-12 -11 -10 -94 2 -94 6 0 10 9 10 20 0 13 7 20 20 20
14 0 20 -7 20 -21 0 -11 5 -17 10 -14 6 3 10 24 10 45 0 21 -4 42 -10 45 -5 3
-10 -3 -10 -14 0 -29 -37 -28 -42 0 -2 11 -6 17 -10 13z"/>
<path d="M2754 5566 c-3 -8 -4 -29 -2 -48 2 -28 7 -34 31 -36 15 -2 27 1 27 7
0 6 -9 11 -20 11 -11 0 -20 5 -20 10 0 6 7 10 15 10 8 0 15 5 15 10 0 6 -7 10
-15 10 -8 0 -15 5 -15 10 0 6 9 10 20 10 11 0 20 5 20 10 0 15 -50 12 -56 -4z"/>
<path d="M2837 5573 c-11 -10 -8 -93 3 -93 6 0 10 9 10 20 0 11 4 20 9 20 5 0
13 -9 16 -20 3 -11 11 -20 16 -20 11 0 11 11 -1 30 -5 9 -5 19 2 27 20 25 -33
59 -55 36z m43 -23 c0 -5 -7 -10 -15 -10 -8 0 -15 5 -15 10 0 6 7 10 15 10 8
0 15 -4 15 -10z"/>
<path d="M2960 5569 c0 -8 5 -31 11 -52 11 -41 32 -45 37 -9 2 12 7 22 12 22
5 0 10 -10 12 -22 5 -34 25 -32 37 3 14 40 14 72 1 64 -5 -3 -10 -17 -10 -31
0 -34 -16 -30 -23 6 -9 41 -25 38 -33 -7 l-7 -38 -11 32 c-13 36 -26 53 -26
32z"/>
<path d="M3115 5564 c-20 -20 -16 -63 7 -77 28 -18 68 7 68 42 0 45 -44 66
-75 35z m50 -34 c0 -16 -6 -26 -18 -28 -19 -4 -32 20 -23 44 9 25 41 13 41
-16z"/>
<path d="M3217 5573 c-11 -10 -8 -93 3 -93 6 0 10 9 10 20 0 11 4 20 9 20 5 0
13 -9 16 -20 3 -11 11 -20 16 -20 11 0 11 11 -1 30 -5 9 -5 19 2 27 20 25 -33
59 -55 36z m43 -23 c0 -5 -7 -10 -15 -10 -8 0 -15 5 -15 10 0 6 7 10 15 10 8
0 15 -4 15 -10z"/>
<path d="M3306 5568 c-4 -9 -6 -31 -4 -50 2 -25 8 -34 26 -36 12 -2 22 1 22 7
0 6 -6 11 -14 11 -10 0 -16 14 -18 43 -3 29 -6 37 -12 25z"/>
<path d="M3377 5573 c-14 -14 -7 -84 9 -90 29 -11 64 14 64 46 0 38 -50 68
-73 44z m48 -43 c0 -16 -6 -26 -17 -28 -14 -3 -18 3 -18 28 0 25 4 31 18 28
11 -2 17 -12 17 -28z"/>
<path d="M3483 5573 c-20 -8 -15 -41 7 -48 27 -9 25 -25 -2 -25 -16 0 -19 -3
-11 -11 16 -16 53 -1 53 21 0 10 -9 22 -20 25 -23 7 -27 25 -5 25 8 0 15 5 15
10 0 10 -16 12 -37 3z"/>
<path d="M3090 5180 c0 -11 7 -20 15 -20 8 0 15 9 15 20 0 11 -7 20 -15 20 -8
0 -15 -9 -15 -20z"/>
<path d="M3276 5175 c-9 -23 -8 -25 9 -25 17 0 19 9 6 28 -7 11 -10 10 -15 -3z"/>
<path d="M488 5182 c-23 -3 -27 -8 -25 -33 1 -16 8 -29 15 -29 6 0 11 3 10 8
0 4 2 15 6 24 10 23 26 13 27 -15 0 -21 1 -21 9 -2 18 43 9 54 -42 47z"/>
<path d="M625 5181 c-11 -5 -26 -6 -32 -4 -9 4 -13 -5 -13 -25 0 -25 4 -30 20
-29 14 1 20 9 21 27 l1 25 7 -25 c4 -14 15 -26 25 -28 14 -3 17 2 14 29 -3 35
-12 42 -43 30z"/>
<path d="M238 5168 c7 -7 12 -20 12 -30 0 -10 5 -18 11 -18 5 0 9 8 7 18 -1 9
1 23 5 30 6 8 0 12 -19 12 -22 0 -25 -3 -16 -12z"/>
<path d="M290 5151 l0 -29 80 0 80 0 -1 32 -2 31 -5 -30 c-5 -30 -5 -30 -11
-5 -4 15 -15 26 -28 28 -17 3 -22 -3 -26 -25 l-4 -28 -2 28 c-1 25 -4 27 -41
27 -38 0 -40 -2 -40 -29z m34 -6 c-4 -8 -8 -15 -10 -15 -2 0 -4 7 -4 15 0 8 4
15 10 15 5 0 7 -7 4 -15z"/>
<path d="M550 5150 c0 -16 5 -30 10 -30 6 0 10 14 10 30 0 17 -4 30 -10 30 -5
0 -10 -13 -10 -30z"/>
<path d="M230 5040 c0 -48 3 -60 16 -60 9 0 18 9 21 20 3 11 10 20 15 20 13 0
39 27 36 37 -2 4 2 9 7 11 6 1 10 -2 10 -7 0 -5 4 -13 9 -18 5 -4 7 -3 3 2 -3
6 8 17 24 24 46 20 25 31 -62 31 l-79 0 0 -60z"/>
<path d="M445 5090 c17 -7 17 -9 3 -9 -15 -1 -48 -41 -34 -41 3 0 1 -11 -4
-25 -6 -15 -6 -26 0 -30 6 -4 10 2 10 13 0 11 11 36 25 56 31 45 31 46 3 45
-22 0 -22 -1 -3 -9z"/>
<path d="M530 5093 c14 -3 29 -9 35 -14 13 -13 22 -11 29 6 4 12 -4 15 -42 14
-27 -1 -36 -4 -22 -6z"/>
<path d="M610 5091 c0 -6 4 -11 9 -11 5 0 14 -12 20 -27 11 -27 11 -27 6 7 -3
23 -2 30 4 21 5 -8 9 -74 9 -147 -1 -72 2 -136 6 -143 4 -7 2 -9 -8 -5 -18 7
-32 -32 -17 -50 8 -10 7 -17 -4 -26 -13 -11 -15 -8 -16 16 0 28 -1 28 -10 6
-5 -13 -13 -21 -19 -17 -6 3 -7 -1 -4 -9 4 -11 20 -16 50 -16 l43 0 -2 203 -2
202 -32 3 c-19 2 -33 -1 -33 -7z"/>
<path d="M513 5063 c21 -24 57 -36 57 -20 0 7 4 6 9 -2 5 -8 16 -11 26 -7 27
10 12 29 -25 31 -19 1 -46 6 -60 10 -25 8 -25 8 -7 -12z"/>
<path d="M542 5010 c2 -8 -3 -14 -10 -12 -8 1 -11 -2 -7 -8 9 -14 25 -13 59 5
15 8 36 15 45 16 10 0 12 2 3 6 -7 3 -25 0 -41 -5 -21 -7 -32 -7 -41 1 -9 9
-11 8 -8 -3z"/>
<path d="M465 4991 c3 -5 -2 -12 -10 -14 -12 -4 -12 -5 1 -3 19 1 32 26 14 26
-6 0 -9 -4 -5 -9z"/>
<path d="M633 4988 c0 -7 -4 -22 -8 -33 -6 -16 -4 -16 10 3 11 15 14 27 8 33
-6 6 -10 5 -10 -3z"/>
<path d="M230 4950 c0 -18 3 -19 20 -10 11 6 20 15 20 20 0 6 -9 10 -20 10
-13 0 -20 -7 -20 -20z"/>
<path d="M315 4960 c-3 -6 1 -7 9 -4 18 7 21 14 7 14 -6 0 -13 -4 -16 -10z"/>
<path d="M395 4949 c-4 -6 -5 -12 -2 -15 2 -3 7 2 10 11 7 17 1 20 -8 4z"/>
<path d="M545 4950 c3 -5 -2 -10 -11 -10 -10 0 -15 -3 -11 -6 9 -9 48 6 42 17
-4 5 -11 9 -16 9 -6 0 -7 -4 -4 -10z"/>
<path d="M581 4926 c-7 -8 -10 -19 -7 -24 3 -5 -5 -21 -18 -35 -13 -14 -22
-28 -19 -30 2 -3 6 -21 7 -41 3 -30 1 -34 -11 -25 -26 23 -20 4 8 -24 16 -16
29 -24 29 -20 0 5 -6 15 -12 22 -11 10 -8 11 15 7 16 -3 25 -1 22 5 -4 5 -11
6 -17 3 -8 -5 -9 3 -5 24 5 25 3 30 -8 25 -21 -7 -19 16 5 55 11 17 17 32 14
32 -4 0 -1 7 6 15 7 9 11 18 8 20 -3 3 -11 -1 -17 -9z"/>
<path d="M289 4918 c-7 -16 -4 -70 5 -75 6 -3 8 -3 4 1 -4 5 9 24 28 43 36 35
33 37 -25 15 -9 -3 -12 -1 -7 6 4 7 5 12 2 12 -3 0 -7 -1 -7 -2z"/>
<path d="M372 4900 c-10 -17 -10 -20 3 -20 8 0 15 2 15 4 0 2 3 11 6 20 9 23
-9 20 -24 -4z"/>
<path d="M604 4888 c-10 -12 -14 -18 -8 -15 18 11 24 -19 9 -40 -18 -23 -19
-42 -2 -39 20 3 37 16 37 29 0 7 -7 3 -15 -7 -13 -17 -15 -17 -15 -4 0 9 5 20
11 23 6 4 8 13 5 21 -3 8 0 13 6 11 7 -1 14 7 16 18 4 17 2 18 -12 6 -14 -12
-16 -12 -10 3 8 22 1 20 -22 -6z"/>
<path d="M237 4893 c-12 -11 -8 -54 6 -67 6 -6 22 -12 34 -12 17 0 19 3 11 13
-6 8 -13 11 -16 8 -6 -6 -32 14 -32 26 0 5 7 6 15 3 8 -4 15 -2 15 4 0 14 -26
33 -33 25z"/>
<path d="M437 4893 c-13 -12 -7 -44 9 -50 23 -9 48 25 33 44 -12 14 -32 17
-42 6z"/>
<path d="M350 4850 c19 -13 30 -13 30 0 0 6 -10 10 -22 10 -19 0 -20 -2 -8
-10z"/>
<path d="M390 4847 c0 -3 9 -26 20 -51 19 -46 36 -56 58 -34 20 20 14 38 -12
38 -15 0 -33 11 -45 26 -12 15 -21 24 -21 21z"/>
<path d="M281 4750 c-62 -41 -64 -46 -3 -15 29 15 55 31 58 36 9 16 -10 8 -55
-21z"/>
<path d="M495 4700 c-3 -5 -1 -10 4 -10 6 0 11 5 11 10 0 6 -2 10 -4 10 -3 0
-8 -4 -11 -10z"/>
<path d="M2202 5154 c4 -21 22 -23 26 -1 2 10 -3 17 -13 17 -10 0 -15 -6 -13
-16z"/>
<path d="M2387 5164 c-14 -14 -7 -62 9 -68 24 -9 45 13 42 43 -3 26 -35 41
-51 25z"/>
<path d="M1407 5110 c-3 -12 0 -20 8 -20 8 0 11 8 8 20 -3 11 -7 20 -8 20 -1
0 -5 -9 -8 -20z"/>
<path d="M887 5090 c-3 -13 0 -20 9 -20 15 0 19 26 5 34 -5 3 -11 -3 -14 -14z"/>
<path d="M3259 4616 l-26 -22 34 -22 c76 -50 14 -133 -99 -132 -37 1 -99 18
-159 44 -12 5 -21 -8 -43 -63 -15 -39 -25 -75 -21 -80 10 -17 77 -31 151 -31
115 0 223 40 290 107 43 43 84 125 84 169 0 26 -5 33 -27 39 -18 4 -31 2 -38
-7 -13 -17 -68 -15 -97 4 -22 14 -26 14 -49 -6z"/>
<path d="M2451 4789 c-54 -16 -123 -94 -159 -181 -33 -80 -40 -136 -20 -156
19 -19 104 -14 147 8 50 25 86 69 127 153 43 90 52 142 28 168 -19 21 -66 24
-123 8z"/>
<path d="M2676 4601 c-10 -11 -23 -18 -29 -16 -7 2 -26 6 -43 9 -29 5 -33 2
-45 -27 -18 -43 -85 -115 -129 -136 -53 -27 -114 -34 -155 -17 -41 17 -50 45
-41 117 6 45 5 49 -14 49 -12 0 -31 -5 -42 -11 -15 -8 -26 -8 -44 1 -12 7 -29
10 -38 7 -37 -14 -50 -180 -17 -233 53 -87 241 -97 401 -22 81 39 183 139 228
224 17 34 29 64 25 68 -12 12 -40 6 -57 -13z"/>
<path d="M1718 4559 c-16 -12 -29 -16 -33 -9 -9 15 -102 13 -108 -2 -3 -7 -32
-80 -66 -162 l-61 -149 53 7 c28 3 64 6 78 6 24 0 31 10 79 130 l53 130 66 0
c123 0 168 10 180 38 15 32 8 38 -21 18 -30 -22 -150 -22 -168 -1 -16 19 -19
19 -52 -6z"/>
<path d="M1272 4545 c-4 -5 -18 -35 -33 -65 -46 -95 -98 -130 -194 -130 -47 0
-57 3 -71 25 -17 25 -13 48 21 137 6 14 0 17 -34 16 -26 0 -44 -6 -50 -15 -7
-13 -12 -13 -31 -3 -28 15 -35 8 -60 -63 -24 -67 -26 -127 -5 -166 31 -60 144
-84 266 -57 135 30 243 114 299 231 46 97 46 97 -33 99 -38 1 -71 -3 -75 -9z"/>
<path d="M3470 3909 c-30 -17 -47 -37 -49 -61 -1 -5 19 -8 44 -8 42 0 46 2 60
37 12 29 13 38 3 45 -16 10 -15 10 -58 -13z"/>
<path d="M3147 3897 c-12 -5 -42 -9 -65 -10 l-44 -2 -43 -107 -43 -108 71 0
c40 0 109 3 154 6 l81 7 16 41 c9 23 16 45 16 50 0 4 -40 4 -90 0 -49 -3 -90
-4 -90 -1 0 4 11 31 24 62 l25 55 85 0 c47 0 87 3 90 8 6 10 -160 9 -187 -1z"/>
<path d="M2694 4003 c-9 -21 -33 -80 -55 -132 -21 -52 -39 -98 -39 -103 0 -13
69 1 112 23 44 22 82 70 103 128 32 91 15 121 -65 121 -38 0 -42 -3 -56 -37z"/>
<path d="M2889 3884 c-6 -8 -25 -14 -41 -14 -22 0 -41 -12 -77 -49 -50 -51
-95 -71 -163 -71 l-37 0 25 55 c13 31 24 58 24 60 0 13 -29 3 -45 -15 -13 -15
-21 -17 -31 -9 -28 23 -46 4 -86 -95 -21 -54 -37 -100 -35 -102 9 -9 236 16
277 31 95 34 173 98 222 183 17 29 17 30 -2 35 -10 3 -24 -1 -31 -9z"/>
<path d="M2207 3915 l-38 -55 35 0 c34 0 35 2 41 44 11 68 3 70 -38 11z"/>
<path d="M2253 3849 c-10 -10 -194 -15 -209 -6 -7 4 -43 -36 -89 -96 -43 -56
-83 -108 -88 -114 -7 -10 4 -13 51 -13 l61 0 43 60 42 60 72 0 c40 0 80 3 89
6 14 6 16 -1 14 -52 -2 -50 0 -59 14 -58 9 0 37 1 61 2 l43 2 7 101 c4 56 4
104 1 108 -9 9 -103 9 -112 0z"/>
<path d="M1657 3855 c-15 -10 -24 -11 -43 -3 -15 7 -28 8 -33 2 -5 -5 -11 -65
-15 -133 l-7 -124 32 7 c17 3 46 6 65 6 30 0 39 9 123 123 64 87 86 123 75
125 -9 2 -24 -4 -35 -14 -18 -16 -19 -16 -19 4 0 40 -28 22 -80 -50 -33 -48
-49 -64 -46 -48 12 59 17 120 9 120 -4 0 -16 -7 -26 -15z"/>
<path d="M916 3697 c-25 -60 -46 -113 -46 -118 0 -12 71 -11 89 0 8 5 31 51
52 103 41 103 39 119 -20 123 -29 2 -31 -2 -75 -108z"/>
<path d="M1186 3801 c-4 -6 -15 -11 -25 -11 -18 0 -18 -4 -5 -77 25 -138 15
-124 96 -121 l72 3 33 78 c42 100 38 127 -18 124 -33 -2 -39 -6 -44 -29 -9
-37 -25 -36 -25 2 0 22 -5 30 -17 30 -10 0 -28 3 -39 6 -12 3 -25 1 -28 -5z"/>
<path d="M722 3797 c-71 -173 -92 -224 -92 -230 0 -12 97 -7 108 6 5 6 29 59
52 116 34 83 40 105 29 112 -22 14 -38 10 -50 -12 -12 -23 -24 -16 -31 16 -4
18 -6 17 -16 -8z"/>
<path d="M3419 3796 c-23 -7 -40 -23 -53 -47 -26 -48 -17 -69 29 -69 47 0 95
45 95 88 0 36 -21 44 -71 28z"/>
<path d="M2915 3521 c-6 -11 9 -23 19 -14 9 9 7 23 -3 23 -6 0 -12 -4 -16 -9z"/>
<path d="M3037 3496 c-13 -10 -15 -16 -6 -21 10 -7 28 10 29 28 0 9 -2 9 -23
-7z"/>
<path d="M3149 3474 c-11 -14 -10 -16 9 -12 13 1 23 7 23 13 1 17 -17 16 -32
-1z"/>
<path d="M535 3330 c-3 -5 -1 -10 4 -10 6 0 11 5 11 10 0 6 -2 10 -4 10 -3 0
-8 -4 -11 -10z"/>
<path d="M495 3290 c-14 -6 -2 -9 43 -9 35 -1 62 3 62 9 0 12 -77 12 -105 0z"/>
<path d="M3798 3343 c6 -2 18 -2 25 0 6 3 1 5 -13 5 -14 0 -19 -2 -12 -5z"/>
<path d="M3748 3333 c7 -3 16 -2 19 1 4 3 -2 6 -13 5 -11 0 -14 -3 -6 -6z"/>
<path d="M3698 3323 c7 -3 16 -2 19 1 4 3 -2 6 -13 5 -11 0 -14 -3 -6 -6z"/>
<path d="M3658 3313 c7 -3 16 -2 19 1 4 3 -2 6 -13 5 -11 0 -14 -3 -6 -6z"/>
<path d="M2797 3230 c-36 -11 -59 -29 -51 -42 12 -19 114 18 114 42 0 12 -24
12 -63 0z"/>
<path d="M2093 3065 c-27 -24 -27 -25 -9 -40 23 -17 63 -11 90 15 48 46 -30
70 -81 25z"/>
<path d="M2614 2995 c-16 -12 -17 -14 -2 -15 23 0 48 11 48 21 0 14 -24 11
-46 -6z"/>
<path d="M2346 2954 c-164 -30 -447 -140 -454 -177 -13 -64 503 80 568 157 7
9 11 18 9 20 -14 12 -54 12 -123 0z"/>
<path d="M1458 2804 c-35 -19 -36 -34 -2 -34 30 0 94 28 94 41 0 14 -62 10
-92 -7z"/>
<path d="M1725 2715 l-30 -13 27 -1 c15 -1 30 4 33 10 11 17 2 18 -30 4z"/>
<path d="M3978 3303 c7 -3 16 -2 19 1 4 3 -2 6 -13 5 -11 0 -14 -3 -6 -6z"/>
<path d="M3747 3284 c-11 -11 3 -24 18 -18 8 4 12 10 9 15 -6 11 -18 12 -27 3z"/>
<path d="M3745 3224 c-72 -18 -94 -34 -44 -34 41 0 150 27 164 41 13 13 -49
10 -120 -7z"/>
<path d="M3528 3213 c6 -2 18 -2 25 0 6 3 1 5 -13 5 -14 0 -19 -2 -12 -5z"/>
<path d="M1050 3155 c0 -9 6 -12 15 -9 8 4 15 10 15 15 0 5 -7 9 -15 9 -8 0
-15 -7 -15 -15z"/>
<path d="M3240 2891 c0 -10 42 -23 49 -15 7 6 -20 24 -36 24 -7 0 -13 -4 -13
-9z"/>
<path d="M3582 2838 c3 -7 17 -14 32 -16 20 -3 27 0 24 10 -3 7 -17 14 -32 16
-20 3 -27 0 -24 -10z"/>
<path d="M3348 2783 c7 -3 16 -2 19 1 4 3 -2 6 -13 5 -11 0 -14 -3 -6 -6z"/>
<path d="M3440 2769 c0 -25 187 -73 261 -67 l44 4 -45 21 c-79 37 -260 67
-260 42z"/>
<path d="M3910 2742 c0 -11 49 -26 58 -17 8 7 0 12 -31 20 -16 4 -27 3 -27 -3z"/>
<path d="M3808 2683 c7 -3 16 -2 19 1 4 3 -2 6 -13 5 -11 0 -14 -3 -6 -6z"/>
<path d="M715 2856 c-27 -65 -12 -107 26 -69 26 26 31 96 6 101 -12 2 -22 -7
-32 -32z"/>
<path d="M2316 2473 c18 -43 16 -102 -5 -129 -12 -15 -21 -32 -21 -38 1 -6 8
1 16 17 8 15 18 27 21 27 4 0 22 -14 39 -31 31 -30 33 -31 27 -8 -6 24 -6 24
16 5 l22 -20 -15 29 c-8 16 -13 32 -10 37 3 4 -1 8 -9 8 -19 0 -29 25 -21 56
5 18 10 22 19 14 22 -19 23 1 0 26 -26 28 -35 30 -35 7 0 -15 -1 -15 -18 0
-24 22 -36 22 -26 0z"/>
<path d="M2540 1937 c0 -5 7 -15 15 -23 17 -17 21 -69 5 -59 -6 4 -18 4 -27 1
-12 -5 -13 -9 -3 -21 11 -13 8 -15 -16 -17 -16 0 -37 -1 -46 0 -10 1 -18 -3
-18 -8 0 -6 25 -10 55 -10 68 0 98 -15 153 -74 30 -33 42 -41 42 -28 0 10 -11
29 -25 42 -30 28 -32 55 -5 70 16 8 22 7 32 -9 11 -19 38 -18 38 1 0 5 -4 7
-9 3 -5 -3 -16 4 -25 16 -13 19 -19 20 -44 11 -35 -12 -72 7 -72 38 0 18 -49
84 -50 67z"/>
<path d="M2641 1271 c-24 -15 -5 -44 24 -37 32 8 47 -20 22 -39 -10 -7 -17
-15 -17 -19 0 -4 13 2 28 13 36 25 70 18 84 -18 10 -23 12 -24 16 -6 3 12 -4
26 -18 37 -30 24 -18 35 23 20 19 -7 49 -12 69 -12 28 0 37 -5 46 -25 7 -14
12 -34 12 -43 0 -9 12 -25 25 -35 l25 -18 -17 35 c-21 44 -12 54 24 30 33 -21
60 -27 67 -15 3 5 -5 12 -19 15 -30 8 -105 73 -105 91 0 17 -30 25 -117 31
-45 3 -80 1 -93 -6 -16 -9 -25 -9 -33 -1 -13 13 -27 14 -46 2z"/>
<path d="M3422 2310 c14 -22 3 -39 -14 -22 -18 18 -31 14 -25 -7 3 -12 -3 -27
-13 -36 -17 -15 -19 -15 -29 2 -6 10 -10 14 -11 8 0 -5 5 -17 10 -25 8 -12 13
-13 29 -3 18 11 22 10 32 -9 14 -27 60 -64 72 -60 5 1 24 -6 43 -17 42 -25 44
-18 4 16 -37 31 -33 40 9 19 42 -22 49 -20 15 6 -16 13 -35 28 -42 35 -7 7
-22 13 -31 13 -23 0 -45 25 -36 40 9 15 -3 60 -15 60 -6 0 -5 -8 2 -20z"/>
<path d="M3490 1823 c0 -11 -99 -70 -131 -78 -19 -5 -28 -2 -32 9 -4 11 -18
15 -39 15 -30 -2 -30 -2 -6 -6 31 -5 46 -36 28 -58 -11 -14 -7 -19 12 -16 8 1
32 -39 26 -43 -2 -2 -12 -8 -23 -14 -14 -8 -15 -11 -5 -12 22 0 37 13 42 35 3
15 11 20 31 18 20 -1 27 3 27 16 0 14 11 20 53 26 28 5 55 7 60 7 4 -1 7 3 7
9 0 8 -14 10 -41 6 -70 -9 -78 2 -29 43 28 24 39 39 32 44 -7 4 -12 3 -12 -1z"/>
<path d="M834 2419 c-13 -21 29 -36 55 -20 19 12 5 31 -24 31 -13 0 -27 -5
-31 -11z"/>
<path d="M1230 2410 c0 -5 13 -10 29 -10 17 0 33 5 36 10 4 6 -8 10 -29 10
-20 0 -36 -4 -36 -10z"/>
<path d="M451 2361 c-20 -13 3 -23 33 -15 14 3 23 10 20 15 -7 11 -35 11 -53
0z"/>
<path d="M767 2316 c-138 -30 -53 -56 123 -39 191 20 214 53 35 52 -55 0 -126
-6 -158 -13z"/>
<path d="M1128 2313 c6 -2 18 -2 25 0 6 3 1 5 -13 5 -14 0 -19 -2 -12 -5z"/>
<path d="M588 2273 c6 -2 18 -2 25 0 6 3 1 5 -13 5 -14 0 -19 -2 -12 -5z"/>
<path d="M836 1885 c-29 -28 -42 -34 -64 -30 -26 5 -26 5 -3 -5 14 -6 21 -16
17 -25 -3 -10 1 -15 14 -15 20 0 36 -33 24 -51 -5 -8 -3 -9 5 -4 8 4 11 18 8
34 -7 34 44 95 73 86 10 -3 22 0 26 7 4 7 4 10 -1 6 -4 -4 -17 -2 -28 3 -16 9
-17 13 -6 20 11 7 9 9 -8 9 -12 0 -38 -16 -57 -35z"/>
<path d="M1262 1609 c-23 -17 -42 -33 -42 -35 0 -10 58 -3 73 9 18 12 32 57
18 57 -4 0 -26 -14 -49 -31z"/>
<path d="M1393 1537 c1 -16 7 -33 14 -39 22 -18 22 -5 2 32 -18 35 -18 35 -16
7z"/>
<path d="M942 1480 c0 -14 2 -19 5 -12 2 6 2 18 0 25 -3 6 -5 1 -5 -13z"/>
<path d="M925 1369 c6 -71 0 -86 -23 -66 -13 10 -14 8 -7 -13 4 -14 11 -27 15
-30 4 -3 9 -12 12 -20 11 -33 19 79 9 135 l-10 60 4 -66z"/>
<path d="M1460 1391 c0 -6 4 -13 10 -16 6 -3 7 1 4 9 -7 18 -14 21 -14 7z"/>
<path d="M443 1289 c-46 -29 -41 -36 5 -8 46 28 47 29 36 29 -5 0 -24 -10 -41
-21z"/>
<path d="M1693 1240 c-28 -3 -55 -9 -59 -13 -11 -10 88 -8 106 3 22 14 10 16
-47 10z"/>
<path d="M913 1165 c0 -22 2 -30 4 -17 2 12 2 30 0 40 -3 9 -5 -1 -4 -23z"/>
<path d="M1685 1180 c-10 -11 -14 -20 -9 -20 12 1 44 25 44 34 0 12 -17 6 -35
-14z"/>
<path d="M1626 1151 c-4 -5 3 -7 14 -4 23 6 26 13 6 13 -8 0 -17 -4 -20 -9z"/>
<path d="M1488 1073 c3 -38 -2 -56 -20 -83 -42 -61 -44 -67 -24 -51 36 30 64
94 59 139 -7 58 -19 53 -15 -5z"/>
<path d="M1931 1099 c-13 -5 -22 -11 -19 -14 5 -5 78 14 78 20 0 8 -33 4 -59
-6z"/>
<path d="M2001 1060 c0 -8 4 -24 9 -35 5 -13 9 -14 9 -5 0 8 -4 24 -9 35 -5
13 -9 14 -9 5z"/>
<path d="M1240 970 c0 -5 5 -10 10 -10 6 0 10 5 10 10 0 6 -4 10 -10 10 -5 0
-10 -4 -10 -10z"/>
<path d="M2365 913 c-14 -21 -25 -42 -25 -48 0 -9 9 3 45 58 26 41 9 32 -20
-10z"/>
<path d="M2568 644 c-2 -25 0 -51 4 -57 4 -7 8 14 8 46 0 68 -7 75 -12 11z"/>
<path d="M2759 533 c12 -18 24 -33 27 -33 9 0 -15 37 -33 51 -12 10 -11 5 6
-18z"/>
<path d="M250 779 c0 -5 52 -9 115 -9 63 0 117 0 120 0 3 0 6 3 8 8 1 4 -53 8
-120 9 -70 1 -123 -3 -123 -8z"/>
<path d="M244 733 c3 -16 16 -18 114 -19 103 -1 112 0 112 17 0 17 -10 19
-114 19 -103 0 -114 -2 -112 -17z"/>
<path d="M302 693 c32 -2 84 -2 115 0 32 2 6 3 -57 3 -63 0 -89 -1 -58 -3z"/>
<path d="M302 653 c32 -2 84 -2 115 0 32 2 6 3 -57 3 -63 0 -89 -1 -58 -3z"/>
<path d="M258 633 c6 -2 18 -2 25 0 6 3 1 5 -13 5 -14 0 -19 -2 -12 -5z"/>
<path d="M348 633 c17 -2 47 -2 65 0 17 2 3 4 -33 4 -36 0 -50 -2 -32 -4z"/>
<path d="M298 543 c34 -2 88 -2 120 0 31 2 3 3 -63 3 -66 0 -92 -1 -57 -3z"/>
<path d="M302 503 c32 -2 84 -2 115 0 32 2 6 3 -57 3 -63 0 -89 -1 -58 -3z"/>
<path d="M302 433 c32 -2 84 -2 115 0 32 2 6 3 -57 3 -63 0 -89 -1 -58 -3z"/>
<path d="M302 403 c32 -2 84 -2 115 0 32 2 6 3 -57 3 -63 0 -89 -1 -58 -3z"/>
<path d="M480 389 c0 -5 5 -7 10 -4 6 3 10 8 10 11 0 2 -4 4 -10 4 -5 0 -10
-5 -10 -11z"/>
<path d="M285 382 c-16 -2 -34 -8 -40 -13 -5 -5 36 -9 108 -9 71 0 117 4 117
10 0 6 -3 10 -7 10 -48 4 -155 4 -178 2z"/>
<path d="M244 343 c9 -9 226 -10 226 -1 0 5 -52 8 -117 8 -64 0 -113 -3 -109
-7z"/>
<path d="M313 303 c37 -2 96 -2 130 0 34 2 4 3 -68 3 -71 0 -99 -1 -62 -3z"/>
<path d="M1785 210 c-8 -14 3 -30 21 -30 8 0 14 9 14 20 0 21 -24 28 -35 10z"/>
<path d="M2355 210 c-8 -14 3 -30 21 -30 8 0 14 9 14 20 0 21 -24 28 -35 10z"/>
<path d="M2720 200 c0 -15 5 -20 18 -18 9 2 17 10 17 18 0 8 -8 16 -17 18 -13
2 -18 -3 -18 -18z"/>
<path d="M3430 209 c0 -5 5 -7 10 -4 6 3 10 8 10 11 0 2 -4 4 -10 4 -5 0 -10
-5 -10 -11z"/>
<path d="M2370 65 c0 -8 5 -15 10 -15 6 0 10 7 10 15 0 8 -4 15 -10 15 -5 0
-10 -7 -10 -15z"/>
<path d="M1430 80 c0 -5 5 -10 10 -10 6 0 10 5 10 10 0 6 -4 10 -10 10 -5 0
-10 -4 -10 -10z"/>
<path d="M1880 70 c0 -11 5 -20 10 -20 6 0 10 9 10 20 0 11 -4 20 -10 20 -5 0
-10 -9 -10 -20z"/>
<path d="M2650 80 c0 -5 5 -10 10 -10 6 0 10 5 10 10 0 6 -4 10 -10 10 -5 0
-10 -4 -10 -10z"/>
<path d="M2757 74 c-8 -8 1 -24 14 -24 5 0 9 7 9 15 0 15 -12 20 -23 9z"/>
<path d="M180 65 c0 -8 5 -15 10 -15 6 0 10 7 10 15 0 8 -4 15 -10 15 -5 0
-10 -7 -10 -15z"/>
<path d="M1677 74 c-8 -8 1 -24 14 -24 5 0 9 7 9 15 0 15 -12 20 -23 9z"/>
<path d="M3177 74 c-8 -8 1 -24 14 -24 5 0 9 7 9 15 0 15 -12 20 -23 9z"/>
</g>
</svg>
